<?xml version="1.0" encoding="utf-8"?>
<!-- Generator: Adobe Illustrator 23.1.0, SVG Export Plug-In . SVG Version: 6.00 Build 0)  -->
<svg version="1.1" id="Lager_1" xmlns="http://www.w3.org/2000/svg" xmlns:xlink="http://www.w3.org/1999/xlink" x="0px" y="0px"
	 width="20px" height="20px" viewBox="0 0 20 20" style="enable-background:new 0 0 20 20;" xml:space="preserve">
<style type="text/css">
	.st0{fill:#C9E5ED;}
	.st1{fill:none;stroke:#213F63;stroke-width:9.000000e-03;stroke-miterlimit:10;}
</style>
<g id="XMLID_1_">
	<g>
		<path class="st0" d="M10.02,3.55c0,0.24,0.01,0.48,0.01,0.72c0,0.08,0,0.16-0.03,0.23C9.97,4.55,9.93,4.59,9.88,4.63
			c-0.11,0.1-0.23,0.18-0.36,0.25C9.5,4.89,9.48,4.9,9.48,4.92S9.5,4.95,9.51,4.96c0.1,0.07,0.2,0.14,0.3,0.2
			C9.83,5.17,9.85,5.19,9.87,5.2C9.96,5.4,9.88,5.63,9.9,5.85c0.01,0.14,0.06,0.27,0.03,0.41C9.92,6.3,9.9,6.34,9.9,6.37
			c-0.01,0.05,0.01,0.1,0.01,0.15c0.02,0.15-0.05,0.31-0.04,0.46c-0.01,1.51,0,3.02,0.03,4.53c-0.19,0.15-0.39,0.3-0.58,0.45
			c-0.12,0.1-0.25,0.19-0.36,0.3c-0.09,0.1-0.18,0.21-0.29,0.29c-0.04,0.02-0.08,0.04-0.12,0.04c-0.04-0.01-0.09-0.04-0.09-0.08
			c0-0.02,0.01-0.04,0.02-0.06c0.05-0.11,0.16-0.21,0.29-0.25c0.04-0.01,0.09-0.02,0.13-0.04c0.04-0.01,0.07-0.04,0.1-0.06
			c0.25-0.2,0.5-0.39,0.76-0.59c0-0.76,0-1.53,0-2.29c0-0.22,0-0.43,0-0.65c0-0.49,0-0.98,0-1.47c0-0.53,0.01-1.05,0.01-1.58
			c0-0.07,0-0.15-0.05-0.21C9.7,5.29,9.68,5.27,9.66,5.25c-0.17-0.13-0.34-0.27-0.51-0.4C9,4.74,8.86,4.63,8.71,4.52
			c-0.19-0.14-0.39-0.27-0.6-0.4c-0.05-0.03-0.1-0.06-0.14-0.11C7.94,3.96,7.94,3.88,7.98,3.84c0.04-0.03,0.1-0.03,0.15,0
			c0.04,0.02,0.08,0.06,0.11,0.1c0.07,0.09,0.15,0.17,0.24,0.24c0.1,0.1,0.22,0.18,0.34,0.27c0.17,0.12,0.34,0.24,0.52,0.36
			C9.36,4.82,9.38,4.84,9.4,4.84c0.02,0,0.05-0.02,0.07-0.04c0.1-0.09,0.21-0.18,0.32-0.28c0.03-0.03,0.06-0.05,0.08-0.09
			C9.89,4.39,9.88,4.35,9.88,4.3c0-0.08-0.01-0.17-0.01-0.26C9.86,4.02,9.86,3.99,9.85,3.97C9.84,3.95,9.81,3.94,9.79,3.92
			c-0.18-0.1-0.37-0.2-0.55-0.31c-0.08-0.04-0.18-0.1-0.22-0.19C9,3.39,8.99,3.34,9.01,3.3c0.02-0.04,0.08-0.05,0.13-0.03
			c0.05,0.01,0.08,0.05,0.12,0.09C9.45,3.55,9.67,3.73,9.9,3.88c0.02-0.19,0.03-0.41-0.11-0.55c-0.04-0.05-0.1-0.08-0.16-0.11
			C9.48,3.14,9.34,3.06,9.2,2.98C9.12,2.94,9.04,2.89,9.04,2.81c0-0.06,0.03-0.11,0.09-0.13C9.19,2.66,9.26,2.7,9.28,2.77
			C9.35,2.86,9.45,2.94,9.56,3C9.6,3.02,9.64,3.04,9.67,3.07C9.72,3.12,9.75,3.2,9.8,3.25C9.85,3.28,9.92,3.3,9.96,3.34
			C10.01,3.39,10.02,3.47,10.02,3.55z"/>
		<path class="st0" d="M9.98,16.41c0.04,0.05,0.06,0.13,0.01,0.16c-0.02,0.01-0.03,0.02-0.05,0.02c-0.13,0.01-0.22-0.11-0.31-0.21
			c-0.05-0.06-0.12-0.11-0.19-0.16c-0.41-0.32-0.83-0.64-1.24-0.95c0.04-0.43,0.04-0.87,0.01-1.3c-0.28-0.19-0.56-0.39-0.84-0.59
			c-0.04-0.02-0.07-0.04-0.1-0.06c-0.04-0.01-0.08-0.02-0.1-0.04c-0.06-0.04-0.07-0.13-0.03-0.18c-0.01-0.11,0-0.23,0.01-0.34
			c0.76-0.56,1.52-1.12,2.28-1.7c0.01-1.21,0.02-2.41,0.03-3.63V7.42c0-0.4,0-0.8,0-1.21c0-0.03,0-0.05-0.02-0.07
			C9.42,6.12,9.39,6.11,9.36,6.11C9.17,6.1,8.97,6.09,8.77,6.09C8.71,6.08,8.65,6.08,8.59,6.08c-0.16,0.01-0.32,0.05-0.47,0
			C8.03,6.03,7.93,5.97,7.85,5.9C7.79,5.84,7.73,5.77,7.66,5.71C7.49,5.56,7.27,5.48,7.07,5.35c-0.04-0.02-0.09-0.06-0.11-0.1
			C6.93,5.19,6.94,5.12,6.94,5.06c0.03-0.32,0.03-0.64-0.05-0.95C6.87,4.03,6.85,3.94,6.9,3.87c0.04-0.06,0.13-0.08,0.19-0.03
			c0.09,0.06,0.07,0.2,0.04,0.31C7.05,4.48,7.04,4.83,7.09,5.16c0.08,0.08,0.17,0.15,0.26,0.22c0.19,0.14,0.38,0.29,0.58,0.44
			c0.05,0.04,0.11,0.08,0.18,0.1c0.05,0.02,0.12,0.02,0.18,0.02c0.37,0.01,0.75,0.01,1.12,0.01c0.06,0,0.14,0.01,0.17,0.06
			C9.6,6.05,9.6,6.09,9.6,6.13c0,0.12,0,0.24-0.01,0.36c0,0.21-0.01,0.41-0.02,0.62c0,0.12,0,0.24-0.01,0.36
			c-0.01,0.88-0.01,1.75-0.01,2.62c-0.01,0.19-0.01,0.38-0.01,0.57c0,0.13,0,0.27,0.01,0.4c-0.04,0.09-0.12,0.15-0.2,0.21
			c-0.7,0.51-1.41,1.03-2.11,1.54c-0.02,0.11-0.03,0.22-0.02,0.34c0.34,0.31,0.82,0.45,1.12,0.79c-0.01,0.04-0.01,0.08-0.01,0.12
			c0,0.36,0,0.72,0,1.08c0.03,0.13,0.16,0.15,0.25,0.21c0.08,0.04,0.14,0.12,0.2,0.18c0.06,0.07,0.13,0.13,0.2,0.18
			c0.11,0.09,0.22,0.18,0.33,0.27c0.07,0.07,0.15,0.14,0.25,0.18c0.09,0.04,0.19,0.06,0.28,0.11C9.9,16.31,9.95,16.35,9.98,16.41z"
			/>
		<path class="st0" d="M9.93,14.92c0.07,0.01,0.13,0.07,0.13,0.13c-0.01,0.07-0.08,0.12-0.16,0.12c-0.07,0-0.13-0.03-0.2-0.05
			c-0.12-0.04-0.25-0.03-0.38-0.03c-0.25,0.01-0.5,0.01-0.75,0.02c-0.02,0-0.04,0-0.06,0c0-0.32,0-0.65,0-0.97
			c0-0.12,0-0.26-0.08-0.36c-0.3-0.2-0.61-0.39-0.93-0.56c-0.04-0.02-0.08-0.05-0.1-0.08c-0.04-0.07-0.02-0.16,0.04-0.19
			c0.09-0.01,0.17,0.04,0.24,0.11c0.06,0.06,0.11,0.12,0.19,0.17l0.01,0.01c0.13,0.14,0.28,0.24,0.44,0.33
			c0.11,0.05,0.23,0.11,0.27,0.22c0.01,0.4,0.02,0.8,0.03,1.2c0.21,0,0.42,0,0.64-0.01c0.16,0,0.32,0,0.47-0.03
			C9.8,14.93,9.87,14.91,9.93,14.92z"/>
		<path class="st0" d="M9.9,12.8c0.02,0.06,0.04,0.13,0.03,0.19c0,0.06-0.04,0.13-0.11,0.14c-0.08,0.02-0.15-0.06-0.16-0.14
			c-0.02-0.08,0.01-0.16,0.04-0.24c0.06-0.22,0.09-0.45,0.04-0.67c-0.08,0.02-0.15,0.07-0.21,0.13c-0.05,0.05-0.1,0.11-0.14,0.16
			c-0.11,0.13-0.23,0.24-0.35,0.36C9,12.77,8.95,12.81,8.9,12.83c-0.06,0.02-0.13,0.01-0.17-0.04c-0.05-0.07,0.01-0.17,0.08-0.21
			c0.07-0.04,0.16-0.05,0.24-0.09c0.13-0.07,0.2-0.21,0.31-0.32c0.13-0.13,0.33-0.21,0.52-0.2C9.83,12.25,9.84,12.53,9.9,12.8z"/>
		<path class="st0" d="M9.92,13.63c0.01,0.05-0.01,0.1-0.01,0.14c-0.05,0.25-0.01,0.51-0.04,0.77c0,0.02-0.01,0.04-0.02,0.05
			c-0.01,0-0.03,0-0.04,0c-0.29,0-0.58,0-0.87,0C8.89,14.5,8.9,14.56,8.9,14.51c0.01-0.16,0.01-0.32,0.01-0.47
			c0.01-0.24,0-0.47-0.02-0.71c-0.11-0.05-0.22-0.11-0.31-0.19c-0.09-0.07-0.18-0.15-0.29-0.2c-0.08-0.03-0.17-0.05-0.24-0.08
			c-0.08-0.04-0.15-0.11-0.15-0.2c0-0.02,0.01-0.05,0.02-0.07c0.03-0.02,0.07-0.03,0.11-0.03c0.13,0.02,0.21,0.16,0.3,0.25
			c0.06,0.06,0.12,0.1,0.18,0.14c0.16,0.11,0.31,0.22,0.46,0.33c0.02,0.4,0.02,0.8,0.02,1.2c0.23,0,0.47,0,0.71,0
			c0.01,0,0.03,0,0.04-0.01c0.04-0.02,0.04-0.06,0.04-0.1C9.77,14.25,9.77,14.12,9.75,14c-0.03-0.16-0.1-0.33-0.03-0.49
			c0.01-0.03,0.04-0.06,0.08-0.06c0.01,0,0.02,0.01,0.04,0.02C9.89,13.51,9.92,13.57,9.92,13.63z"/>
		<path class="st0" d="M7.94,15.54c-0.01,0.14-0.01,0.28-0.02,0.42c0,0.06,0,0.11,0.02,0.16c0.13,0.1,0.26,0.2,0.4,0.3
			c0.16,0.12,0.33,0.24,0.5,0.36c0.07,0.06,0.14,0.11,0.23,0.15c0.1,0.04,0.22,0.06,0.31,0.13c0.04,0.04,0.07,0.1,0.04,0.16
			c-0.01,0.01-0.02,0.02-0.04,0.04c-0.03,0.02-0.06,0.04-0.1,0.04c-0.09,0-0.15-0.08-0.21-0.15c-0.04-0.05-0.09-0.09-0.15-0.14
			c-0.06-0.05-0.11-0.1-0.17-0.15c-0.06-0.05-0.12-0.1-0.19-0.15c-0.25-0.19-0.53-0.35-0.75-0.58c0.02-0.61,0.03-1.23,0.04-1.85
			c0-0.03-0.03-0.08-0.05-0.1c-0.03-0.02-0.06-0.04-0.08-0.06H7.71c-0.19-0.15-0.39-0.29-0.6-0.41c-0.02-0.03-0.05-0.04-0.08-0.06
			c-0.1-0.06-0.21-0.14-0.31-0.22H6.71c0.03-0.2,0.04-0.4,0.02-0.6c0-0.08-0.01-0.16,0.02-0.23c0.03-0.08,0.09-0.13,0.15-0.18
			c0.27-0.21,0.55-0.4,0.83-0.57c0.1-0.06,0.19-0.12,0.28-0.18c0.14-0.1,0.27-0.21,0.39-0.34c0.04-0.04,0.08-0.09,0.14-0.11
			c0.05-0.02,0.13,0,0.15,0.05c0.01,0.04-0.01,0.09-0.03,0.12c-0.07,0.08-0.18,0.11-0.27,0.15c-0.06,0.03-0.11,0.06-0.16,0.1
			c-0.19,0.12-0.37,0.24-0.56,0.37c-0.14,0.09-0.29,0.19-0.43,0.31c-0.11,0.1-0.22,0.21-0.35,0.29c-0.02,0.01-0.04,0.03-0.05,0.05
			c-0.01,0.02-0.01,0.04-0.01,0.07c0.01,0.22,0.01,0.45,0.02,0.67c0.35,0.23,0.69,0.46,1.03,0.69c0.02,0.02,0.03,0.05,0.03,0.08
			c0.01,0.35,0.01,0.71,0.01,1.06c0,0.07,0,0.13,0,0.19c0.67,0.46,1.32,0.94,1.95,1.45c-0.01,0.16-0.02,0.32-0.02,0.48
			c-0.13,0.12-0.26,0.24-0.39,0.36c-0.06,0.06-0.13,0.11-0.21,0.13c-0.16,0.02-0.31,0.02-0.47,0.02c-0.49-0.38-0.99-0.74-1.5-1.09
			c-0.12-0.07-0.23-0.15-0.35-0.22c-0.11-0.08-0.23-0.15-0.36-0.2c-0.07-0.03-0.16-0.05-0.23-0.09c-0.08-0.04-0.15-0.11-0.17-0.19
			c-0.01-0.04-0.01-0.1,0.03-0.13c0.07-0.06,0.16,0.01,0.22,0.07c0.21,0.2,0.43,0.39,0.68,0.55c0.24,0.16,0.5,0.31,0.73,0.48
			c0.13,0.09,0.25,0.18,0.37,0.28c0.19,0.14,0.39,0.28,0.59,0.4c0.13,0,0.27,0,0.4,0.02c0.03,0,0.05,0,0.07,0
			c0.15-0.16,0.31-0.32,0.49-0.46c-0.01-0.11-0.01-0.23,0.02-0.35c-0.59-0.43-1.17-0.87-1.75-1.31C8,15.61,7.98,15.57,7.94,15.54z"
			/>
		<path class="st0" d="M9.69,15.55c0.01,0.05,0,0.11-0.03,0.14c-0.06,0.06-0.16,0.06-0.23,0.03c-0.01-0.01-0.02-0.01-0.03-0.02
			c-0.03-0.02-0.04-0.04-0.04-0.05c-0.02-0.05-0.02-0.11,0-0.16c0.01-0.01,0.01-0.03,0.02-0.04c0.03-0.04,0.07-0.07,0.12-0.09
			c0.06-0.01,0.14,0.02,0.16,0.1C9.67,15.49,9.69,15.52,9.69,15.55z"/>
		<path class="st0" d="M9.54,4.2C9.57,4.25,9.6,4.32,9.58,4.38c-0.03,0.06-0.1,0.09-0.16,0.1C9.4,4.49,9.38,4.49,9.36,4.49
			c-0.02,0-0.04-0.01-0.06-0.03c-0.06-0.04-0.09-0.12-0.07-0.2c0.02-0.07,0.08-0.13,0.15-0.14c0.02,0,0.03,0,0.04,0
			C9.47,4.12,9.51,4.16,9.54,4.2z"/>
		<path class="st0" d="M9.57,14.1c0.01,0.01,0,0.03,0,0.04c-0.02,0.07-0.05,0.15-0.13,0.17c-0.01,0-0.03,0-0.05,0
			c-0.07-0.02-0.11-0.04-0.13-0.07c-0.03-0.04-0.03-0.09-0.02-0.14c0.01-0.05,0.03-0.09,0.06-0.13c0.02-0.02,0.06-0.04,0.1-0.04
			c0.07,0.01,0.12,0.08,0.16,0.14C9.57,14.08,9.57,14.09,9.57,14.1z"/>
		<path class="st0" d="M9.51,13.65c0.01,0.05,0,0.11-0.03,0.15c-0.02,0.03-0.05,0.05-0.08,0.06c-0.04,0.01-0.08-0.01-0.11-0.04
			c-0.04-0.02-0.07-0.05-0.09-0.08c-0.02-0.03-0.02-0.07-0.01-0.11c0.01-0.04,0.05-0.07,0.09-0.09c0.03-0.02,0.06-0.04,0.09-0.05
			c0.06-0.01,0.13,0.02,0.12,0.11C9.5,13.61,9.5,13.63,9.51,13.65z"/>
		<path class="st0" d="M9.37,5.33C9.41,5.38,9.43,5.44,9.4,5.49C9.37,5.57,9.26,5.57,9.19,5.53C9.12,5.49,9.08,5.42,9.02,5.36
			C8.96,5.27,8.87,5.2,8.79,5.13c-0.12-0.1-0.24-0.19-0.36-0.29C8.22,4.68,8.01,4.52,7.78,4.38C7.71,4.34,7.63,4.29,7.59,4.22
			C7.57,4.18,7.56,4.13,7.56,4.09c-0.02-0.15-0.03-0.3-0.02-0.45c0-0.03,0-0.05,0.02-0.08C7.57,3.53,7.6,3.51,7.63,3.5
			C7.85,3.34,8.08,3.19,8.3,3.04c0.03-0.06,0.08-0.11,0.13-0.16c0.1-0.08,0.24-0.13,0.34-0.07C8.79,2.82,8.8,2.83,8.81,2.85
			c0.01,0.02,0,0.05-0.01,0.07C8.72,3.08,8.51,3.1,8.35,3.17C8.26,3.2,8.18,3.25,8.11,3.31C7.98,3.39,7.86,3.47,7.74,3.55
			C7.72,3.56,7.7,3.57,7.69,3.59c-0.01,0.02-0.01,0.04,0,0.06c0,0.09,0,0.18,0,0.27c0,0.07,0,0.14,0.04,0.21
			C7.76,4.18,7.8,4.21,7.84,4.25c0.07,0.05,0.14,0.1,0.21,0.14c0.03,0.02,0.06,0.03,0.09,0.05C8.17,4.46,8.2,4.49,8.22,4.52
			C8.34,4.67,8.5,4.78,8.66,4.89C8.8,4.99,8.95,5.08,9.1,5.16c0.05,0.03,0.09,0.05,0.13,0.08C9.28,5.26,9.34,5.29,9.37,5.33z"/>
		<path class="st0" d="M9.32,7.74c0.04,0.04,0.07,0.08,0.07,0.12c0,0.09-0.11,0.14-0.2,0.11C9.11,7.94,9.06,7.86,9,7.79
			C8.92,7.69,8.81,7.6,8.71,7.52c-0.3-0.25-0.6-0.48-0.92-0.7C7.62,6.71,7.45,6.6,7.31,6.45c0,0.31,0,0.62,0.01,0.93
			c0.3,0.21,0.59,0.43,0.89,0.65c0.06,0.06,0.13,0.1,0.2,0.15c0.07,0.05,0.14,0.1,0.17,0.18C8.59,8.37,8.59,8.38,8.6,8.39
			c0.01,0.33,0.01,0.66,0,0.99c-0.01,0-0.03,0.01-0.03,0.02C8.52,9.49,8.45,9.57,8.38,9.64C8.26,9.75,8.15,9.86,8.03,9.97
			C7.87,9.95,7.71,9.94,7.55,9.94c-0.2-0.01-0.41-0.01-0.61-0.01c0.02-0.33,0.05-0.67-0.04-1c-0.02-0.07-0.04-0.14-0.03-0.2
			C6.88,8.66,6.94,8.59,7.01,8.6c0.05,0,0.09,0.04,0.11,0.08c0.01,0.05,0.02,0.09,0.02,0.14c0,0.07,0.01,0.14-0.03,0.2
			C7.09,9.05,7.07,9.07,7.06,9.1C7.04,9.13,7.04,9.16,7.04,9.19c0,0.18,0,0.36-0.01,0.54c0,0.02,0,0.04,0.02,0.05
			c0.01,0.01,0.03,0.01,0.06,0.01c0.28-0.06,0.59,0.09,0.87,0c0.09-0.07,0.18-0.13,0.27-0.2c0.03-0.03,0.06-0.05,0.09-0.08
			C8.38,9.47,8.41,9.4,8.45,9.37c0.03-0.31,0.03-0.63-0.01-0.94c0-0.02,0-0.04-0.01-0.06C8.42,8.35,8.4,8.33,8.38,8.32
			c-0.13-0.11-0.27-0.2-0.41-0.28C7.85,7.97,7.73,7.89,7.61,7.81C7.52,7.76,7.43,7.7,7.34,7.63C7.28,7.58,7.22,7.54,7.18,7.48
			c0-0.06,0-0.13,0-0.13c0-0.3,0-0.61,0-0.91c0-0.02,0-0.05,0.01-0.06C6.99,6.19,6.76,6.02,6.51,5.9C6.42,5.87,6.33,5.83,6.28,5.75
			c-0.05-0.07-0.05-0.2,0.04-0.23c0.05-0.03,0.1-0.01,0.15,0.02c0.04,0.03,0.08,0.07,0.11,0.12c0.2,0.24,0.45,0.44,0.7,0.63
			C7.49,6.45,7.7,6.61,7.91,6.77C8.14,6.95,8.37,7.13,8.6,7.31c0.08,0.06,0.17,0.13,0.26,0.18C9.01,7.58,9.19,7.63,9.32,7.74z"/>
		<path class="st0" d="M9.36,6.34c0.01,0.08-0.01,0.15-0.02,0.23c-0.01,0.12,0.01,0.24,0,0.35c0,0.02,0,0.03-0.01,0.04
			C9.32,6.97,9.31,6.97,9.3,6.97C9.07,7.01,8.85,7.01,8.62,6.98c-0.78-0.54-1.46-1.24-2.3-1.67C6.25,5.28,6.17,5.24,6.14,5.18
			C6.09,5.1,6.12,4.99,6.21,4.98C6.28,5.02,6.34,5.07,6.4,5.13C7.04,5.69,7.73,6.2,8.42,6.71c0.1,0.07,0.2,0.15,0.33,0.17
			c0.14,0.01,0.28,0,0.44-0.03C9.2,6.74,9.17,6.63,9.14,6.51C9.12,6.4,9.11,6.28,9.17,6.18c0.01-0.01,0.02-0.02,0.02-0.02
			c0.02-0.01,0.04-0.01,0.05,0C9.31,6.18,9.36,6.26,9.36,6.34z"/>
		<path class="st0" d="M9.3,2c0.04,0.06,0.01,0.15-0.04,0.2C9.2,2.24,9.13,2.26,9.06,2.29C8.95,2.34,8.84,2.41,8.74,2.48
			C8.31,2.76,7.88,3.04,7.46,3.33C7.44,3.34,7.41,3.36,7.4,3.38c0,0.02,0,0.03-0.01,0.05c0,0.3-0.01,0.59-0.02,0.88
			c0,0.12,0,0.24,0.02,0.36C7.65,4.9,7.92,5.13,8.24,5.26C8.32,5.3,8.42,5.33,8.48,5.4c0.06,0.06,0.08,0.18,0.01,0.24
			C8.42,5.7,8.31,5.66,8.25,5.6c-0.07-0.07-0.1-0.16-0.16-0.22C8.05,5.33,8,5.3,7.96,5.27c-0.2-0.15-0.4-0.29-0.6-0.44
			C7.34,4.81,7.32,4.79,7.3,4.77C7.25,4.71,7.26,4.62,7.26,4.54c0.02-0.3,0.02-0.61-0.01-0.92C7.24,3.51,7.23,3.38,7.29,3.28
			c0.04-0.05,0.1-0.09,0.16-0.12c0.17-0.1,0.34-0.21,0.51-0.31c0.26-0.17,0.52-0.34,0.78-0.51C8.8,2.3,8.86,2.25,8.91,2.2
			C8.97,2.13,9.01,2.05,9.07,2C9.14,1.95,9.25,1.93,9.3,2z"/>
		<path class="st0" d="M9.19,3.98c0.03,0.06-0.02,0.14-0.08,0.18C9.1,4.17,9.08,4.18,9.05,4.19C9.04,4.19,9.02,4.18,9,4.18
			C8.94,4.16,8.89,4.11,8.86,4.06C8.84,4.02,8.83,3.98,8.84,3.94c0.02-0.04,0.06-0.07,0.1-0.1C8.96,3.83,8.98,3.82,9,3.81h0.01
			C9.04,3.84,9.07,3.86,9.1,3.88C9.14,3.91,9.18,3.94,9.19,3.98z"/>
		<path class="st0" d="M9.08,8.28C9.1,8.36,9.07,8.44,9.04,8.51C9.01,8.62,9.01,8.73,9.01,8.84C9,8.96,9,9.08,8.99,9.21
			c-0.01,0.47-0.01,0.95,0,1.42c-0.31,0.23-0.62,0.45-0.94,0.68c-0.5,0.36-1,0.72-1.46,1.12c-0.06,0.39-0.07,0.78-0.04,1.18
			c0.21,0.15,0.43,0.31,0.65,0.47c0.07,0.05,0.15,0.11,0.23,0.16c0.06,0.04,0.12,0.08,0.19,0.11c-0.03,0.68-0.03,1.35-0.01,2.03
			c0.23,0.2,0.46,0.4,0.74,0.52c0.08,0.04,0.16,0.07,0.24,0.12c0.07,0.04,0.14,0.11,0.16,0.19c0.01,0.02,0.01,0.04-0.02,0.07
			c-0.07,0.03-0.15,0.01-0.21-0.03c-0.07-0.05-0.11-0.11-0.16-0.16c-0.22-0.24-0.53-0.36-0.77-0.58c-0.04-0.04-0.08-0.08-0.07-0.14
			v-0.01c0-0.64-0.01-1.27,0-1.92c-0.33-0.3-0.69-0.56-1.07-0.78c0-0.44,0-0.88,0-1.32c0.02,0.02,0.05,0,0.07-0.02
			C6.65,12.2,6.79,12.1,6.93,12c0.64-0.48,1.29-0.96,1.94-1.44C8.89,10,8.9,9.43,8.88,8.86c0-0.12-0.01-0.25-0.05-0.37
			C8.8,8.41,8.76,8.31,8.8,8.23c0.03-0.05,0.1-0.09,0.16-0.07C9.02,8.17,9.07,8.22,9.08,8.28z"/>
		<path class="st0" d="M8.9,6.31c0.05,0.04,0.07,0.1,0.06,0.16c0,0.06-0.04,0.12-0.1,0.15C8.85,6.63,8.83,6.64,8.81,6.64
			c-0.02,0.01-0.05,0-0.07-0.01c-0.07-0.04-0.11-0.11-0.1-0.19c0-0.07,0.05-0.13,0.12-0.16C8.81,6.27,8.86,6.28,8.9,6.31z"/>
		<path class="st0" d="M8.86,1.81c0.03,0.03,0.05,0.08,0.03,0.13C8.88,1.97,8.84,1.99,8.81,2C8.68,2.05,8.54,2,8.4,1.97
			C8.24,1.94,8.07,1.94,7.9,1.94c-0.1,0-0.19,0-0.29,0c-0.05,0-0.1,0-0.15,0.02S7.37,2.01,7.33,2.04C7.26,2.11,7.18,2.17,7.1,2.24
			C7.03,2.3,6.96,2.36,6.92,2.44C6.88,2.52,6.88,2.62,6.88,2.72c0,0.14,0.01,0.29,0.03,0.43c0.23-0.18,0.45-0.38,0.65-0.59
			c0.06-0.07,0.15-0.15,0.23-0.11C7.88,2.49,7.88,2.63,7.81,2.7C7.75,2.77,7.65,2.79,7.56,2.83C7.35,2.91,7.17,3.05,6.99,3.18
			C6.97,3.2,6.94,3.22,6.93,3.24C6.92,3.26,6.92,3.29,6.92,3.31C6.91,3.37,6.91,3.42,6.91,3.47C6.9,3.58,6.89,3.7,6.8,3.76
			C6.74,3.8,6.66,3.81,6.61,3.86C6.57,3.9,6.56,3.96,6.55,4.02c0,0.1-0.02,0.19-0.01,0.29C6.34,4.53,6.03,4.6,5.8,4.79
			c-0.06,0.04-0.12,0.1-0.19,0.14C5.58,4.94,5.55,4.96,5.52,4.99C5.5,5.01,5.49,5.05,5.49,5.08C5.47,5.19,5.44,5.31,5.47,5.43
			c0.05,0.23,0.27,0.39,0.48,0.52c0.28,0.18,0.56,0.36,0.83,0.56c0.11,0.08,0.21,0.16,0.26,0.28c0.04,0.08,0.04,0.17,0.04,0.26
			C7.09,7.37,7.09,7.68,7.07,8c0.01,0.09-0.03,0.18-0.08,0.26C6.93,8.34,6.85,8.41,6.76,8.47C6.72,8.49,6.68,8.51,6.65,8.55
			c-0.1,0.09-0.1,0.23-0.11,0.36c0,0.19-0.01,0.38,0.05,0.57c0.03,0.1,0.08,0.21,0.03,0.3c-0.03,0.05-0.08,0.08-0.13,0.1
			c-0.01,0-0.02,0-0.03,0c-0.01,0-0.02-0.01-0.03-0.02C6.37,9.78,6.36,9.67,6.37,9.58c0.01-0.1,0.04-0.2,0.06-0.3
			c0.04-0.22,0.02-0.44,0.02-0.67c0-0.03,0.01-0.06,0.02-0.08C6.48,8.5,6.51,8.49,6.53,8.47C6.62,8.4,6.72,8.33,6.82,8.26
			c0.03-0.02,0.07-0.05,0.1-0.09C6.95,8.12,6.96,8.06,6.95,8C7,7.62,7,7.23,6.95,6.85C6.94,6.82,6.94,6.8,6.93,6.78
			C6.91,6.76,6.89,6.74,6.87,6.73C6.71,6.61,6.54,6.49,6.38,6.37C6.06,6.14,5.74,5.92,5.42,5.68C5.4,5.66,5.37,5.64,5.36,5.61
			C5.35,5.6,5.35,5.58,5.35,5.56c0-0.11-0.01-0.22-0.01-0.33c0-0.08,0-0.16,0.03-0.23c0.05-0.11,0.17-0.17,0.28-0.23
			C5.86,4.66,6.07,4.54,6.27,4.4C6.33,4.35,6.4,4.3,6.41,4.22c0-0.08,0.01-0.14,0.02-0.22c0-0.09,0.02-0.19,0.08-0.25
			c0.08-0.07,0.21-0.08,0.25-0.17c0.01-0.03,0.01-0.06,0.01-0.09C6.78,3.16,6.78,2.83,6.79,2.5c0-0.04,0-0.07,0.01-0.1
			c0.02-0.03,0.04-0.05,0.06-0.07C6.98,2.22,7.1,2.11,7.22,2c0.03-0.03,0.07-0.06,0.11-0.08C7.36,1.91,7.4,1.9,7.44,1.9
			C7.67,1.86,7.9,1.83,8.13,1.85c0.05,0,0.09,0.01,0.14,0c0.15,0,0.3-0.09,0.45-0.08C8.77,1.77,8.82,1.78,8.86,1.81z"/>
		<path class="st0" d="M8.79,3.64C8.8,3.66,8.8,3.68,8.8,3.69c0,0.02-0.01,0.04-0.02,0.05C8.75,3.78,8.73,3.81,8.7,3.83
			S8.63,3.87,8.59,3.86s-0.07-0.05-0.1-0.09C8.47,3.74,8.45,3.69,8.45,3.65C8.46,3.6,8.49,3.56,8.53,3.54
			c0.01-0.01,0.02-0.02,0.03-0.02C8.65,3.52,8.74,3.57,8.79,3.64z"/>
		<path class="st0" d="M8.59,10.14c0.06,0.02,0.12,0.07,0.11,0.14c0,0.06-0.06,0.11-0.12,0.12c-0.06,0.02-0.13,0-0.19-0.01
			c-0.14-0.04-0.28-0.07-0.42-0.1c-0.03-0.01-0.05-0.01-0.07-0.02c-0.04,0-0.07,0-0.11,0.01c-0.17,0.01-0.34,0.03-0.51,0.04
			c-0.1,0.05-0.19,0.11-0.28,0.19c-0.03,0.03-0.05,0.06-0.08,0.09c-0.11,0.1-0.22,0.19-0.34,0.27c-0.19,0.01-0.37,0.01-0.55,0.02
			c-0.1-0.04-0.19-0.09-0.27-0.14c-0.04-0.02-0.07-0.05-0.1-0.08c-0.02-0.04-0.03-0.09-0.03-0.13C5.55,9.91,5.7,9.27,5.59,8.65
			C5.55,8.6,5.57,8.54,5.6,8.49C5.64,8.45,5.68,8.43,5.73,8.4c0.24-0.14,0.47-0.29,0.7-0.46c0.02-0.01,0.05-0.03,0.06-0.06
			c0.02-0.03,0.02-0.06,0.02-0.09c0.02-0.33-0.06-0.67,0.02-1C6.34,6.8,6.14,6.8,5.94,6.8c-0.04,0-0.08,0-0.13-0.01
			C5.75,6.78,5.7,6.74,5.65,6.7C5.47,6.58,5.3,6.45,5.12,6.32c0-0.12,0-0.25,0-0.38c0-0.36,0-0.73-0.01-1.09c0-0.1,0-0.2,0.05-0.29
			C5.2,4.47,5.29,4.4,5.37,4.34c0.09-0.07,0.17-0.13,0.27-0.19C5.72,4.1,5.8,4.06,5.87,4c0.05-0.04,0.09-0.1,0.14-0.14
			c0.05-0.05,0.11-0.08,0.17-0.08c0.07,0,0.14,0.05,0.14,0.12c0,0.08-0.09,0.13-0.17,0.17C5.86,4.19,5.58,4.35,5.32,4.53
			C5.29,4.56,5.25,4.58,5.24,4.62C5.22,4.65,5.22,4.69,5.22,4.73c-0.02,0.5-0.01,1,0,1.5c0.14,0.1,0.28,0.21,0.43,0.31
			c0.06,0.05,0.13,0.1,0.2,0.12C5.9,6.68,5.96,6.68,6.01,6.68C6.25,6.69,6.48,6.69,6.7,6.69c0,0.33,0,0.65-0.01,0.98
			c0,0.09-0.01,0.18-0.05,0.26C6.61,7.97,6.57,8.01,6.53,8.04C6.3,8.23,6.03,8.36,5.8,8.54C5.77,8.56,5.74,8.59,5.72,8.62
			c0,0.02,0,0.04,0,0.06c0,0.56,0.01,1.13,0.02,1.69c-0.05,0.08-0.01,0.18,0.06,0.25c0.03,0.03,0.07,0.06,0.11,0.08
			c0.02,0.02,0.05,0.03,0.08,0.04c0.02,0.01,0.05,0.01,0.07,0.01c0.14-0.01,0.27-0.01,0.41-0.01c0.02,0,0.04,0,0.06-0.01
			c0.02,0,0.04-0.02,0.05-0.03c0.17-0.13,0.34-0.26,0.5-0.39c-0.21-0.02-0.42-0.03-0.64,0c-0.13-0.07-0.26-0.15-0.37-0.24
			c-0.05-0.05-0.1-0.1-0.13-0.16C5.91,9.83,5.92,9.75,5.92,9.67c0.01-0.26,0-0.53-0.03-0.79c0-0.06-0.01-0.13,0.01-0.19
			C5.93,8.63,5.99,8.58,6.05,8.6C6.1,8.62,6.13,8.67,6.13,8.72S6.12,8.82,6.1,8.87C6.03,9.12,6.03,9.38,6.03,9.64
			c0,0.08,0,0.17,0.05,0.24c0.03,0.04,0.07,0.07,0.11,0.1c0.07,0.05,0.15,0.11,0.23,0.16c0.02,0.02,0.04,0.03,0.06,0.02
			c0.44,0.04,0.89,0.05,1.34,0.03c0.19-0.01,0.39-0.03,0.58-0.05C8.47,10.13,8.53,10.12,8.59,10.14z"/>
		<path class="st0" d="M8.45,7.61c0.04,0.01,0.07,0.02,0.09,0.04C8.58,7.68,8.6,7.72,8.6,7.76c0,0.03-0.01,0.05-0.03,0.08
			C8.53,7.89,8.45,7.92,8.38,7.91C8.31,7.89,8.26,7.83,8.24,7.76c0-0.01,0-0.03,0.01-0.05c0-0.01,0.01-0.02,0.02-0.02
			C8.3,7.67,8.33,7.65,8.36,7.63C8.38,7.62,8.4,7.61,8.42,7.6h0.01l0.01,0.01H8.45z"/>
		<path class="st0" d="M8.41,2.22C8.42,2.25,8.4,2.29,8.38,2.33C8.37,2.36,8.35,2.38,8.32,2.4C8.3,2.41,8.28,2.41,8.26,2.42
			c-0.05,0-0.1-0.01-0.14-0.03C8.08,2.36,8.04,2.32,8.03,2.28C8.01,2.23,8.02,2.17,8.06,2.14C8.08,2.11,8.12,2.1,8.15,2.08
			C8.2,2.06,8.25,2.05,8.3,2.06v0.01c0.03,0.03,0.06,0.06,0.08,0.1C8.39,2.18,8.4,2.2,8.41,2.22z"/>
		<path class="st0" d="M8.28,8.59c0,0.01,0.01,0.02,0,0.03c0,0.02,0,0.03-0.01,0.04c-0.05,0.06-0.13,0.1-0.22,0.09
			C7.97,8.73,7.91,8.64,7.94,8.56c0.02-0.07,0.08-0.1,0.15-0.13c0.01-0.01,0.02-0.01,0.06,0C8.16,8.41,8.19,8.44,8.2,8.46
			C8.24,8.49,8.27,8.54,8.28,8.59z"/>
		<path class="st0" d="M8.25,9.07c0.01,0.07-0.02,0.14-0.08,0.16C8.13,9.25,8.09,9.24,8.06,9.24C8.03,9.23,8.01,9.23,7.99,9.22
			C7.97,9.21,7.96,9.19,7.95,9.17C7.94,9.14,7.92,9.12,7.92,9.09c-0.01-0.05,0.02-0.1,0.05-0.14c0.02-0.03,0.04-0.06,0.07-0.08
			c0.03-0.01,0.07-0.02,0.1,0C8.15,8.88,8.17,8.89,8.18,8.9C8.22,8.95,8.25,9.01,8.25,9.07z"/>
		<path class="st0" d="M8.19,7.4c0.04,0.06,0.04,0.13,0.02,0.19C8.2,7.6,8.2,7.62,8.18,7.63C8.17,7.64,8.15,7.65,8.13,7.65
			C8.11,7.66,8.08,7.66,8.05,7.66C8.03,7.67,8,7.66,7.98,7.65C7.94,7.62,7.92,7.58,7.9,7.53C7.88,7.5,7.87,7.47,7.87,7.44
			c0.01-0.04,0.04-0.07,0.07-0.1C7.95,7.33,7.97,7.31,7.98,7.3C8.06,7.28,8.15,7.33,8.19,7.4z"/>
		<path class="st0" d="M8.1,10.46c0.04,0.05,0.06,0.12,0.03,0.17c-0.01,0.03-0.04,0.06-0.07,0.08C8.04,10.72,8.02,10.74,8,10.74
			c-0.04,0.01-0.07,0.01-0.1,0c-0.05-0.02-0.09-0.07-0.11-0.12c0-0.02-0.01-0.04,0-0.06c0-0.03,0.02-0.05,0.04-0.07
			c0.06-0.05,0.14-0.1,0.23-0.07C8.08,10.42,8.09,10.44,8.1,10.46z"/>
		<path class="st0" d="M7.92,11.07c0,0.05-0.04,0.1-0.09,0.12c-0.05,0.03-0.11,0.04-0.16,0.06c-0.11,0.03-0.19,0.11-0.27,0.19
			c-0.19,0.16-0.38,0.3-0.59,0.43c-0.07,0.02-0.14,0.02-0.21,0.02c-0.04,0-0.07,0-0.11,0c-0.24,0-0.49,0-0.74,0
			c-0.22-0.15-0.44-0.31-0.67-0.47c-0.13-0.1-0.27-0.19-0.42-0.26c-0.07-0.04-0.16-0.08-0.21-0.15c-0.06-0.07-0.05-0.19,0.03-0.23
			c0.09-0.03,0.18,0.05,0.24,0.12c0.3,0.35,0.67,0.64,1.08,0.84c0.31,0.02,0.63,0.03,0.94,0.02c0.28-0.19,0.56-0.39,0.79-0.64
			c0.06-0.07,0.12-0.14,0.2-0.16C7.81,10.93,7.92,10.98,7.92,11.07z"/>
		<path class="st0" d="M7.88,9.51C7.9,9.62,7.81,9.75,7.71,9.73c-0.07-0.02-0.12-0.1-0.13-0.17c0-0.08,0.02-0.15,0.04-0.23
			c0.05-0.22,0.04-0.46,0.02-0.7C7.66,8.54,7.63,8.45,7.6,8.36C7.58,8.29,7.56,8.22,7.57,8.14C7.59,8.07,7.65,8,7.72,8.01
			c0.08,0,0.14,0.08,0.15,0.15c0.01,0.07-0.01,0.15-0.03,0.22C7.77,8.64,7.76,8.91,7.79,9.19C7.8,9.25,7.81,9.31,7.83,9.37
			C7.85,9.42,7.87,9.47,7.88,9.51z"/>
		<path class="st0" d="M7.72,7.01C7.83,7.05,7.9,7.17,7.87,7.28C7.86,7.31,7.84,7.35,7.81,7.37C7.77,7.4,7.7,7.4,7.65,7.37
			C7.59,7.35,7.56,7.3,7.52,7.25C7.51,7.23,7.49,7.2,7.49,7.17c0-0.05,0.04-0.09,0.08-0.13C7.58,7.03,7.6,7.01,7.62,7.01
			C7.66,7,7.7,7,7.72,7.01z"/>
		<path class="st0" d="M7.65,10.55c0.01,0.05,0,0.1-0.04,0.16c-0.04,0.05-0.11,0.07-0.17,0.05c-0.02,0-0.04-0.01-0.05-0.02
			c-0.04-0.02-0.08-0.06-0.1-0.1c-0.01-0.05,0-0.1,0.03-0.13c-0.01-0.04,0.02-0.05,0.04-0.06c0.06-0.01,0.13-0.03,0.19-0.01
			C7.59,10.46,7.63,10.5,7.65,10.55z"/>
		<path class="st0" d="M7.27,14.58c0.01,0.14,0.01,0.28,0.02,0.42c-0.09,0.03-0.16,0.13-0.19,0.22c-0.03,0.1-0.03,0.2-0.03,0.31
			c0,0.2,0.01,0.4,0.06,0.6c0.01,0.04,0.02,0.09,0,0.13c-0.03,0.08-0.16,0.07-0.2,0c-0.05-0.07-0.04-0.16-0.02-0.24
			c0.02-0.08,0.05-0.16,0.04-0.24c-0.01-0.15,0-0.29-0.01-0.45c0-0.04,0-0.08,0.01-0.12c0.04-0.09,0.14-0.12,0.2-0.19
			c0.07-0.09,0.07-0.22,0.06-0.33c-0.38-0.31-0.77-0.6-1.18-0.86c0-0.41-0.01-0.82-0.01-1.23c-0.46-0.34-0.92-0.67-1.39-1.01
			c-0.01-0.01-0.02-0.01-0.03-0.02c-0.15-0.08-0.32-0.1-0.48-0.05c-0.03,0.01-0.05,0.02-0.07,0.01C4,11.52,3.99,11.45,3.99,11.4
			c-0.01-0.15-0.01-0.3-0.01-0.45c0-0.31,0.02-0.63,0.05-0.94c0.01-0.04,0.01-0.09,0.03-0.12C4.09,9.83,4.14,9.8,4.18,9.77
			c0.1-0.07,0.19-0.14,0.28-0.2c0.03-0.02,0.07-0.05,0.08-0.08c0.02-0.04,0.02-0.08,0.02-0.12c0.01-0.28,0.01-0.55,0.01-0.83
			C4.58,8.17,4.58,7.8,4.51,7.43c-0.01-0.06-0.02-0.13,0-0.19C4.52,7.2,4.56,7.16,4.6,7.15c0.11,0.03,0.15,0.14,0.15,0.24
			C4.74,7.47,4.72,7.56,4.7,7.64C4.68,7.76,4.68,7.89,4.68,8.01C4.69,8.4,4.69,8.79,4.7,9.18c0,0.13,0,0.27-0.06,0.37
			C4.61,9.6,4.57,9.63,4.54,9.66C4.47,9.73,4.39,9.78,4.31,9.83C4.27,9.86,4.22,9.88,4.19,9.92c-0.1,0.14,0.01,0.34-0.06,0.48
			c0.11-0.07,0.21-0.15,0.32-0.23c0.14-0.1,0.27-0.2,0.4-0.31C4.91,9.82,4.96,9.76,5,9.7c0.03-0.07,0.03-0.15,0.03-0.22
			c0-0.28,0-0.55,0-0.83c0-0.11,0-0.23-0.03-0.35C4.98,8.21,4.94,8.12,4.95,8.02c0.01-0.09,0.11-0.19,0.2-0.16
			c0.07,0.03,0.1,0.11,0.09,0.19C5.23,8.12,5.19,8.19,5.17,8.26C5.13,8.37,5.13,8.5,5.13,8.62c0,0.34,0.01,0.67,0.03,1.01
			c0,0.04,0,0.09-0.01,0.13C5.13,9.8,5.1,9.82,5.07,9.85c-0.27,0.23-0.55,0.44-0.84,0.62c-0.03,0.02-0.06,0.04-0.08,0.08
			c0,0.02,0,0.04,0,0.06c-0.01,0.24-0.02,0.48-0.05,0.72c0.04,0.05,0.11,0.03,0.16,0.02c0.12-0.01,0.23,0.05,0.35,0.01
			c0.3,0.31,0.63,0.59,1,0.82c0.17,0.11,0.34,0.21,0.49,0.35c0.05,0.32,0.04,0.64,0.03,0.97c0,0.08,0,0.17,0,0.26
			c0.08,0.08,0.18,0.14,0.28,0.2c0.09,0.05,0.2,0.1,0.28,0.17c0.09,0.06,0.16,0.15,0.24,0.22C7.03,14.44,7.15,14.51,7.27,14.58z"/>
		<path class="st0" d="M7.24,10.98c0.06,0.04,0.04,0.13-0.01,0.18c-0.04,0.05-0.11,0.06-0.18,0.09c-0.09,0.03-0.17,0.09-0.24,0.15
			c-0.05,0.04-0.09,0.09-0.14,0.13c-0.08,0.07-0.16,0.12-0.25,0.15c-0.14,0.01-0.27,0.01-0.41,0c-0.32-0.23-0.66-0.48-0.97-0.73
			c-0.02-0.19-0.03-0.39-0.02-0.59c0-0.05,0.01-0.1,0.03-0.15c0.02-0.06,0.07-0.11,0.12-0.16C5.23,9.99,5.3,9.92,5.36,9.86
			c-0.01-0.51-0.01-1.03,0-1.54c0.08-0.05,0.15-0.1,0.23-0.15C5.64,8.13,5.7,8.09,5.75,8.06C5.87,7.98,5.98,7.9,6.1,7.82
			c0.05-0.04,0.1-0.08,0.14-0.13c0-0.18-0.01-0.37-0.03-0.54c-0.13,0-0.25,0-0.37,0C5.79,7.14,5.75,7.14,5.7,7.13
			c-0.07-0.01-0.13-0.06-0.19-0.1C5.35,6.92,5.18,6.8,5.01,6.68C4.93,6.63,4.85,6.57,4.79,6.5C4.75,6.03,4.76,5.56,4.77,5.09
			c0-0.27,0.01-0.54,0.02-0.81c0-0.02,0-0.04,0.01-0.05c0-0.02,0.02-0.03,0.03-0.04C5.15,3.88,5.6,3.73,5.9,3.4
			c0.05-0.06,0.11-0.13,0.19-0.16c0.07-0.03,0.18,0,0.2,0.08c0.01,0.05-0.01,0.1-0.05,0.13C6.2,3.49,6.16,3.51,6.11,3.53
			C5.73,3.69,5.37,3.91,5.06,4.18C5.01,4.21,4.97,4.25,4.94,4.3C4.89,4.39,4.89,4.5,4.9,4.6c0.02,0.61,0.02,1.22-0.01,1.83
			c0.03,0.05,0.07,0.08,0.12,0.11c0.17,0.12,0.37,0.21,0.51,0.37c0.04,0.05,0.13,0.13,0.19,0.11C5.93,7.05,6.09,6.98,6.3,7.04
			c0.05,0.02,0.05,0.05,0.05,0.07C6.34,7.34,6.34,7.57,6.34,7.8C6.3,7.83,6.25,7.85,6.21,7.89C6.19,7.91,6.17,7.94,6.14,7.97
			C6.11,8,6.07,8.03,6.02,8.06C5.88,8.15,5.73,8.25,5.59,8.35c0,0-0.07,0.05-0.13,0.09c-0.01,0.48-0.01,0.97,0,1.45
			C5.4,10,5.33,10.1,5.22,10.17c-0.01,0.01-0.03,0.02-0.04,0.04c-0.02,0.02-0.02,0.06-0.02,0.09c0,0.21,0,0.42,0.01,0.63
			c0.29,0.21,0.57,0.43,0.86,0.65c0.09,0,0.18,0,0.27,0.01c0.04,0,0.08,0,0.11-0.02c0.14-0.1,0.27-0.22,0.38-0.35
			c0.1-0.11,0.21-0.25,0.36-0.26C7.19,10.95,7.22,10.96,7.24,10.98z"/>
		<path class="st0" d="M6.73,15.57c0,0.05,0.01,0.1-0.01,0.15c-0.01,0.04-0.05,0.09-0.1,0.1c-0.07,0.01-0.13-0.06-0.14-0.12
			c-0.02-0.07,0-0.14,0.01-0.2c0.05-0.22,0.07-0.45,0.05-0.67c0-0.08-0.01-0.17-0.07-0.23c-0.04-0.04-0.1-0.06-0.14-0.09
			c-0.11-0.07-0.18-0.19-0.3-0.24c-0.07-0.03-0.15-0.03-0.22-0.03c-0.26,0-0.52-0.01-0.78-0.01c0-0.06,0.01-0.12,0.02-0.17
			c0.01-0.17,0.02-0.35,0.01-0.52c0-0.04-0.01-0.08-0.03-0.11c-0.02-0.04-0.06-0.06-0.09-0.09C4.68,13.18,4.43,13,4.19,12.8
			c-0.02-0.02-0.04-0.03-0.05-0.05c-0.01-0.03,0-0.05,0-0.08c0.03-0.23,0.02-0.47-0.03-0.71C4.1,11.89,4.08,11.8,4.1,11.73
			c0.03-0.08,0.11-0.14,0.19-0.11c0.04,0.03,0.07,0.08,0.07,0.14c0,0.05-0.02,0.1-0.04,0.15c-0.05,0.2-0.05,0.41-0.05,0.62
			c0,0.05,0,0.11,0.02,0.16c0.03,0.06,0.08,0.11,0.14,0.15c0.22,0.17,0.45,0.35,0.67,0.52c0.02,0.02,0.05,0.04,0.06,0.06
			c0.01,0.03,0.01,0.06,0.01,0.09c0,0.2,0,0.4-0.01,0.6c0.24-0.02,0.49-0.02,0.73,0c0.04,0,0.08,0,0.1,0.03
			c0.2,0.14,0.39,0.28,0.59,0.41c0.02,0.02,0.04,0.03,0.05,0.05c0.02,0.02,0.02,0.06,0.02,0.09c0.01,0.19,0,0.38-0.03,0.57
			C6.71,15.34,6.72,15.46,6.73,15.57z"/>
		<path class="st0" d="M6.34,11.16c0.02,0.03,0.04,0.07,0.03,0.1c-0.01,0.03-0.03,0.05-0.06,0.07c-0.02,0.03-0.05,0.05-0.08,0.06
			c-0.03,0.02-0.07,0.02-0.1,0c-0.03-0.02-0.04-0.04-0.05-0.06c-0.02-0.03-0.04-0.06-0.05-0.09c-0.01-0.06,0.01-0.13,0.05-0.17
			c0.02-0.02,0.04-0.03,0.06-0.04C6.22,11.05,6.29,11.1,6.34,11.16z"/>
		<path class="st0" d="M6.12,15.37c0.02,0.06,0.03,0.12,0.02,0.18c-0.01,0.08-0.07,0.17-0.15,0.17c-0.06,0-0.11-0.07-0.13-0.13
			c-0.02-0.08-0.01-0.15,0.01-0.23c0.02-0.06,0.04-0.13,0.05-0.19c0.04-0.16,0.02-0.33,0-0.5c-0.12,0.03-0.24-0.03-0.36-0.03
			c-0.07,0-0.14,0.03-0.21,0.04c-0.07,0.02-0.15,0.03-0.22,0.01c-0.06-0.02-0.12-0.09-0.11-0.16c0.01-0.07,0.07-0.11,0.13-0.13
			c0.07-0.01,0.13,0.01,0.2,0.03c0.05,0.02,0.11,0.05,0.16,0.08c0.15-0.02,0.3-0.03,0.45-0.04c0.01-0.01,0.03-0.01,0.04,0
			c0.02,0.01,0.02,0.03,0.02,0.04c0.03,0.18,0.03,0.36,0.03,0.54c0,0.05-0.01,0.11,0,0.16C6.07,15.26,6.1,15.31,6.12,15.37z"/>
		<path class="st0" d="M6.01,7.34c0.04,0.04,0.06,0.09,0.06,0.14c-0.01,0.06-0.04,0.1-0.08,0.13C5.94,7.64,5.88,7.64,5.83,7.64
			c-0.02,0-0.04-0.01-0.05-0.01C5.74,7.62,5.74,7.61,5.73,7.59C5.72,7.56,5.7,7.52,5.7,7.47c0-0.04,0.01-0.08,0.04-0.11
			C5.76,7.35,5.78,7.34,5.8,7.33c0.04-0.02,0.1-0.04,0.15-0.01C5.97,7.32,5.99,7.33,6.01,7.34z"/>
		<path class="st0" d="M5.9,5.13c0.05,0.03,0.09,0.1,0.08,0.16C5.97,5.32,5.94,5.35,5.91,5.38C5.88,5.42,5.84,5.45,5.78,5.46
			c-0.06,0-0.11-0.04-0.16-0.08C5.59,5.35,5.56,5.31,5.56,5.27c0-0.02,0.01-0.05,0.03-0.06C5.62,5.16,5.67,5.12,5.72,5.1
			C5.78,5.1,5.85,5.1,5.9,5.13z"/>
		<path class="st0" d="M5.75,6.06c0.1,0.02,0.16,0.12,0.15,0.22c0,0.02-0.01,0.04-0.02,0.06C5.86,6.36,5.84,6.37,5.82,6.38
			C5.76,6.4,5.7,6.42,5.63,6.41C5.55,6.38,5.5,6.29,5.52,6.21s0.09-0.14,0.16-0.16c0.02,0,0.03,0,0.05,0
			C5.74,6.06,5.75,6.06,5.75,6.06z"/>
		<path class="st0" d="M5.68,13.64c0.01,0.06-0.01,0.13-0.05,0.17c-0.04,0.05-0.12,0.06-0.17,0.02c-0.03-0.02-0.04-0.06-0.05-0.1
			c-0.02-0.1-0.01-0.21,0.04-0.3c0.01-0.03,0.03-0.06,0.04-0.1c0-0.02,0-0.04,0-0.06c-0.02-0.13-0.02-0.27-0.01-0.4
			c-0.18-0.17-0.39-0.3-0.62-0.39c-0.06-0.02-0.13-0.04-0.18-0.08c-0.05-0.04-0.09-0.11-0.07-0.17c0.01-0.06,0.07-0.09,0.13-0.1
			c0.05-0.01,0.11,0.02,0.15,0.05c0.07,0.06,0.11,0.13,0.16,0.19c0.04,0.05,0.09,0.1,0.14,0.14c0.11,0.09,0.23,0.17,0.35,0.24
			c0.03,0.02,0.05,0.03,0.08,0.05c0,0.18-0.01,0.35-0.01,0.53c0,0.04,0,0.07,0.01,0.1C5.63,13.5,5.67,13.57,5.68,13.64z"/>
		<path class="st0" d="M5.61,7.42c0.01,0.06-0.02,0.12-0.05,0.17C5.53,7.62,5.51,7.64,5.47,7.65c-0.03,0.01-0.08,0-0.12-0.02
			C5.31,7.6,5.29,7.56,5.27,7.53C5.25,7.49,5.23,7.44,5.24,7.4c0.01-0.03,0.04-0.05,0.07-0.06c0.05-0.01,0.17-0.02,0.17-0.02
			C5.54,7.31,5.59,7.36,5.61,7.42z"/>
		<path class="st0" d="M4.54,5.39c0.01,0.1-0.01,0.2-0.03,0.3C4.46,5.99,4.46,6.3,4.5,6.61C4.51,6.68,4.52,6.74,4.49,6.8
			C4.47,6.83,4.45,6.85,4.43,6.87c-0.1,0.1-0.21,0.18-0.33,0.26c-0.08,0.06-0.17,0.11-0.22,0.2C3.83,7.42,3.83,7.52,3.83,7.62
			c0,0.13,0.01,0.27,0.1,0.35c0.06,0.06,0.15,0.08,0.19,0.15c0.01,0.03,0.01,0.06,0.02,0.09c0.02,0.26,0.02,0.52-0.01,0.78
			C4.11,9.06,4.14,9.14,4.16,9.21c0.03,0.06,0.06,0.13,0.06,0.21c0,0.07-0.05,0.15-0.12,0.16C4.06,9.59,4.01,9.57,3.99,9.54
			C3.95,9.49,3.95,9.41,3.96,9.35c0.05-0.34,0.07-0.68,0.07-1.02c0-0.04,0-0.09-0.02-0.13c-0.05-0.1-0.2-0.12-0.27-0.21
			C3.71,7.93,3.71,7.86,3.71,7.8c0-0.09,0-0.18,0-0.28c0-0.09,0-0.2,0.05-0.28c0.03-0.05,0.08-0.09,0.12-0.12
			C4.03,7,4.19,6.89,4.35,6.78C4.41,6.36,4.4,5.92,4.32,5.5C4.31,5.45,4.3,5.39,4.31,5.33c0.02-0.05,0.07-0.1,0.13-0.09
			C4.5,5.25,4.53,5.32,4.54,5.39z"/>
		<path class="st0" d="M4.23,7.39C4.3,7.44,4.38,7.5,4.37,7.58C4.36,7.65,4.31,7.7,4.25,7.74C4.21,7.76,4.17,7.78,4.12,7.77
			c-0.02,0-0.05-0.02-0.07-0.04C3.99,7.68,3.96,7.59,3.99,7.52c0.02-0.08,0.1-0.13,0.18-0.12C4.19,7.4,4.22,7.41,4.23,7.39z"/>
	</g>
	<g>
		<path class="st1" d="M10.21,9.93c0,2.31,0.01,4.62,0.01,6.93c0,0.41-0.05,0.89-0.41,1.07c-0.11,0.06-0.24,0.08-0.36,0.09
			c-0.6,0.07-1.24,0.12-1.74-0.2c-0.16-0.11-0.29-0.25-0.45-0.35c-0.31-0.2-0.69-0.26-1.04-0.38C5.87,16.97,5.5,16.75,5.4,16.4
			c-0.08-0.27,0-0.57-0.05-0.84c-0.11-0.55-0.72-0.9-0.82-1.45c-0.04-0.21,0-0.43-0.09-0.62c-0.07-0.16-0.23-0.28-0.37-0.41
			c-0.26-0.26-0.41-0.64-0.4-1.01c0-0.18,0.04-0.36,0.02-0.54c-0.03-0.16-0.1-0.3-0.15-0.45c-0.11-0.32-0.13-0.67-0.06-1
			c0.03-0.14,0.07-0.27,0.09-0.4c0.01-0.14,0-0.27-0.01-0.41C3.51,8.81,3.47,8.33,3.35,7.88C3.29,7.66,3.21,7.42,3.28,7.21
			C3.3,6.85,3.7,6.56,3.74,6.19c0.03-0.25-0.11-0.51-0.01-0.74c0.08-0.21,0.33-0.31,0.48-0.49c0.17-0.22,0.18-0.51,0.25-0.78
			C4.59,3.6,5.01,3.1,5.55,2.88c0.26-0.1,0.56-0.15,0.73-0.36c0.09-0.1,0.13-0.23,0.19-0.35C6.66,1.83,7.02,1.6,7.4,1.49
			c0.37-0.12,0.77-0.13,1.16-0.14C8.67,1.34,8.79,1.34,8.9,1.36C9.05,1.4,9.2,1.5,9.29,1.63c0.17,0.12,0.3,0.31,0.35,0.51
			c0.05,0.2,0.05,0.45,0.22,0.55c0.07,0.04,0.16,0.04,0.23,0.09c0.05,0.04,0.07,0.09,0.09,0.15c0.06,0.18,0.06,0.37,0.06,0.56
			C10.22,5.65,10.23,7.76,10.21,9.93z"/>
	</g>
</g>
<g id="XMLID_3_">
	<g>
		<path class="st0" d="M10.86,3.55c0,0.24-0.01,0.48-0.01,0.72c0,0.08,0,0.16,0.03,0.23c0.03,0.05,0.07,0.09,0.11,0.13
			c0.11,0.1,0.24,0.18,0.37,0.25c0.02,0.01,0.04,0.02,0.04,0.04s-0.02,0.03-0.03,0.04c-0.1,0.07-0.2,0.13-0.31,0.2
			c-0.01,0.01-0.03,0.02-0.05,0.04C10.92,5.4,11,5.63,10.98,5.85c-0.01,0.13-0.06,0.27-0.03,0.41c0.01,0.04,0.03,0.07,0.03,0.11
			c0.01,0.05-0.01,0.1-0.01,0.15c-0.02,0.15,0.04,0.31,0.04,0.46c0,1.51,0,3.02-0.03,4.53c0.19,0.15,0.39,0.3,0.58,0.45
			c0.12,0.09,0.25,0.19,0.36,0.3c0.09,0.1,0.18,0.21,0.29,0.29c0.04,0.02,0.08,0.04,0.12,0.04c0.04-0.01,0.08-0.04,0.09-0.08
			c0-0.02-0.01-0.04-0.02-0.06c-0.05-0.12-0.16-0.21-0.29-0.25c-0.04-0.01-0.09-0.02-0.13-0.04c-0.04-0.02-0.07-0.04-0.1-0.06
			c-0.25-0.2-0.51-0.39-0.76-0.59c0-0.76,0-1.53,0-2.29c0-0.22,0-0.43,0-0.65c0-0.49,0-0.98,0-1.48c0-0.52-0.01-1.04-0.01-1.57
			c0-0.07,0-0.15,0.05-0.21c0.01-0.03,0.04-0.04,0.06-0.06c0.17-0.14,0.34-0.27,0.51-0.4c0.14-0.11,0.29-0.23,0.43-0.33
			c0.2-0.14,0.4-0.27,0.6-0.4c0.06-0.03,0.11-0.06,0.15-0.11c0.03-0.05,0.03-0.13-0.02-0.17c-0.03-0.03-0.1-0.03-0.14,0
			c-0.05,0.02-0.08,0.06-0.11,0.1c-0.08,0.09-0.15,0.17-0.24,0.24c-0.1,0.1-0.22,0.18-0.34,0.27c-0.17,0.12-0.34,0.24-0.52,0.36
			c-0.02,0.01-0.04,0.02-0.06,0.02c-0.02,0-0.05-0.01-0.07-0.03c-0.1-0.09-0.21-0.19-0.32-0.28c-0.03-0.03-0.07-0.06-0.08-0.1
			C10.99,4.39,10.99,4.34,11,4.3c0-0.08,0.01-0.17,0.01-0.26c0-0.02,0.01-0.05,0.02-0.07c0.01-0.02,0.04-0.04,0.06-0.05
			c0.18-0.1,0.36-0.2,0.55-0.31c0.08-0.05,0.17-0.1,0.22-0.19c0.02-0.03,0.03-0.08,0.01-0.12c-0.02-0.04-0.08-0.05-0.13-0.03
			c-0.05,0.01-0.08,0.05-0.12,0.09c-0.2,0.19-0.41,0.37-0.65,0.52c-0.01-0.19-0.02-0.41,0.12-0.55c0.04-0.05,0.1-0.08,0.16-0.11
			c0.14-0.08,0.29-0.16,0.43-0.24c0.07-0.04,0.15-0.1,0.16-0.18c0-0.05-0.03-0.11-0.09-0.12c-0.06-0.02-0.13,0.02-0.15,0.08
			c-0.07,0.1-0.17,0.18-0.28,0.24c-0.04,0.02-0.08,0.04-0.11,0.07c-0.05,0.05-0.08,0.13-0.14,0.18c-0.04,0.03-0.11,0.05-0.15,0.09
			C10.87,3.39,10.86,3.47,10.86,3.55z"/>
		<path class="st0" d="M10.89,16.41c-0.03,0.05-0.05,0.12,0,0.16c0.01,0.01,0.03,0.02,0.05,0.02c0.13,0.01,0.22-0.11,0.31-0.21
			c0.05-0.06,0.12-0.11,0.18-0.16c0.42-0.32,0.84-0.64,1.25-0.95c-0.04-0.43-0.04-0.87-0.01-1.3c0.28-0.19,0.56-0.39,0.84-0.59
			c0.03-0.02,0.07-0.04,0.1-0.06c0.04-0.01,0.07-0.02,0.1-0.04c0.06-0.04,0.07-0.13,0.03-0.18c0.01-0.12,0-0.23-0.01-0.35
			c-0.76-0.55-1.53-1.11-2.28-1.69c-0.01-1.21-0.02-2.41-0.03-3.63V7.42c0-0.41,0-0.8,0-1.21c0-0.03,0-0.06,0.02-0.07
			c0.02-0.02,0.05-0.03,0.07-0.03c0.2-0.01,0.4-0.02,0.6-0.03c0.06,0,0.12,0,0.18,0c0.16,0.01,0.32,0.05,0.46-0.01
			c0.1-0.04,0.2-0.1,0.28-0.17c0.06-0.06,0.12-0.13,0.19-0.19c0.17-0.15,0.39-0.23,0.59-0.36c0.04-0.03,0.09-0.06,0.11-0.11
			c0.03-0.05,0.02-0.12,0.02-0.18c-0.03-0.32-0.03-0.64,0.05-0.95c0.02-0.08,0.04-0.17-0.01-0.24c-0.04-0.06-0.13-0.08-0.19-0.04
			c-0.09,0.07-0.07,0.21-0.04,0.32c0.08,0.33,0.09,0.67,0.03,1.01c-0.07,0.08-0.16,0.15-0.25,0.21c-0.19,0.15-0.39,0.3-0.58,0.45
			c-0.06,0.04-0.11,0.08-0.18,0.1c-0.06,0.02-0.12,0.02-0.18,0.02c-0.37,0-0.75,0.01-1.12,0.01c-0.07,0-0.14,0.01-0.17,0.06
			c-0.03,0.04-0.03,0.08-0.02,0.12c0,0.12,0,0.24,0.01,0.36c0,0.21,0.01,0.41,0.01,0.62c0.01,0.12,0.01,0.24,0.02,0.36
			c0,0.87,0.01,1.75,0.01,2.62c0,0.19,0,0.38,0.01,0.57c0,0.13,0,0.26-0.01,0.4c0.04,0.09,0.12,0.15,0.2,0.21
			c0.7,0.51,1.41,1.03,2.11,1.54c0.02,0.11,0.03,0.22,0.02,0.33c-0.34,0.32-0.82,0.45-1.12,0.8c0.01,0.04,0.01,0.08,0.01,0.12
			c0,0.36,0,0.72,0,1.08c-0.03,0.13-0.16,0.14-0.26,0.2c-0.07,0.05-0.13,0.13-0.19,0.19c-0.06,0.07-0.13,0.12-0.2,0.18
			c-0.11,0.09-0.22,0.18-0.33,0.27c-0.08,0.07-0.15,0.14-0.25,0.18c-0.09,0.04-0.19,0.06-0.28,0.11
			C10.98,16.3,10.93,16.35,10.89,16.41z"/>
		<path class="st0" d="M10.95,14.92c-0.07,0.01-0.13,0.07-0.13,0.13c0,0.07,0.08,0.12,0.15,0.12c0.07,0,0.14-0.03,0.21-0.05
			c0.12-0.04,0.25-0.04,0.38-0.03c0.25,0.01,0.5,0.01,0.75,0.02c0.02,0,0.04,0,0.06-0.01c0-0.32,0-0.64,0-0.96
			c0-0.13,0-0.26,0.08-0.37c0.3-0.2,0.61-0.38,0.92-0.55c0.04-0.02,0.09-0.05,0.11-0.09c0.04-0.06,0.02-0.15-0.04-0.18
			c-0.09-0.01-0.17,0.04-0.24,0.11c-0.06,0.06-0.11,0.12-0.19,0.17L13,13.24c-0.13,0.14-0.28,0.24-0.45,0.33
			c-0.1,0.05-0.22,0.11-0.26,0.22c-0.01,0.4-0.02,0.8-0.03,1.2c-0.21-0.01-0.43-0.01-0.64-0.01c-0.16,0-0.32,0-0.48-0.03
			C11.08,14.93,11.01,14.91,10.95,14.92z"/>
		<path class="st0" d="M10.97,12.8c-0.01,0.06-0.03,0.13-0.02,0.19c0,0.06,0.04,0.13,0.11,0.14c0.07,0.02,0.15-0.06,0.16-0.14
			s-0.01-0.16-0.04-0.24c-0.06-0.22-0.09-0.45-0.04-0.67c0.08,0.02,0.15,0.07,0.21,0.13c0.05,0.05,0.1,0.1,0.14,0.16
			c0.11,0.12,0.23,0.24,0.35,0.36c0.04,0.04,0.09,0.08,0.14,0.1c0.06,0.02,0.13,0.01,0.17-0.04c0.04-0.07-0.01-0.17-0.08-0.21
			c-0.07-0.04-0.16-0.06-0.24-0.09c-0.13-0.07-0.2-0.21-0.31-0.32c-0.14-0.14-0.33-0.21-0.52-0.2
			C11.05,12.25,11.04,12.53,10.97,12.8z"/>
		<path class="st0" d="M10.96,13.63c-0.01,0.05,0,0.09,0.01,0.14c0.05,0.25,0.01,0.51,0.04,0.77c0,0.02,0.01,0.03,0.02,0.04
			c0.01,0.01,0.02,0.01,0.04,0.01c0.29,0,0.58,0,0.87,0c0.05-0.09,0.04-0.04,0.04-0.09c-0.01-0.15-0.01-0.31-0.01-0.46
			c-0.01-0.24,0-0.48,0.02-0.71c0.11-0.05,0.21-0.11,0.31-0.19c0.09-0.07,0.18-0.15,0.29-0.2c0.08-0.04,0.17-0.05,0.24-0.09
			c0.08-0.03,0.15-0.11,0.15-0.19c0-0.03-0.01-0.05-0.02-0.07c-0.03-0.03-0.07-0.03-0.11-0.03c-0.13,0.02-0.21,0.15-0.3,0.25
			c-0.06,0.05-0.12,0.1-0.18,0.14c-0.16,0.11-0.31,0.22-0.47,0.33c-0.01,0.4-0.01,0.8-0.01,1.2c-0.24,0-0.47,0-0.71,0
			c-0.02,0-0.03,0-0.05-0.01c-0.03-0.02-0.03-0.06-0.03-0.1c0.01-0.12,0.01-0.25,0.03-0.37c0.03-0.16,0.09-0.34,0.03-0.49
			c-0.02-0.03-0.04-0.06-0.08-0.06c-0.01,0-0.03,0.01-0.04,0.02C10.99,13.51,10.96,13.57,10.96,13.63z"/>
		<path class="st0" d="M12.94,15.54c0.01,0.14,0.01,0.28,0.02,0.42c0,0.05,0,0.11-0.02,0.16c-0.13,0.1-0.26,0.2-0.4,0.29
			c-0.16,0.13-0.33,0.25-0.5,0.37c-0.07,0.06-0.15,0.11-0.23,0.15c-0.1,0.04-0.22,0.06-0.31,0.13c-0.04,0.04-0.07,0.1-0.04,0.15
			c0.01,0.02,0.02,0.03,0.03,0.04c0.04,0.03,0.07,0.05,0.11,0.05c0.09,0,0.15-0.08,0.2-0.15c0.05-0.05,0.1-0.09,0.16-0.14
			c0.05-0.05,0.11-0.1,0.17-0.15s0.12-0.1,0.19-0.15c0.25-0.19,0.53-0.35,0.75-0.58c-0.02-0.62-0.03-1.23-0.04-1.85
			c0-0.03,0.02-0.08,0.05-0.1c0.03-0.02,0.05-0.04,0.08-0.06h0.01c0.23-0.19,0.48-0.36,0.74-0.51c0.02-0.02,0.04-0.03,0.07-0.04
			c0.06-0.05,0.12-0.09,0.18-0.13v-0.01h0.01c-0.04-0.2-0.04-0.4-0.03-0.61c0.01-0.07,0.02-0.15-0.01-0.22
			c-0.03-0.08-0.09-0.13-0.16-0.18c-0.26-0.21-0.54-0.4-0.82-0.58c-0.1-0.05-0.19-0.11-0.28-0.17c-0.14-0.1-0.28-0.21-0.39-0.34
			c-0.04-0.04-0.08-0.09-0.14-0.11c-0.05-0.02-0.13-0.01-0.15,0.05c-0.02,0.04,0,0.09,0.03,0.12c0.07,0.08,0.18,0.1,0.27,0.15
			c0.05,0.02,0.11,0.06,0.16,0.09c0.18,0.13,0.37,0.25,0.55,0.37c0.15,0.1,0.3,0.2,0.44,0.32c0.11,0.1,0.22,0.21,0.35,0.29
			c0.02,0.01,0.04,0.02,0.05,0.04c0.01,0.03,0.01,0.05,0.01,0.08c-0.01,0.22-0.01,0.44-0.02,0.67c-0.35,0.22-0.69,0.46-1.03,0.69
			c-0.02,0.02-0.03,0.05-0.03,0.08c-0.01,0.35-0.01,0.71-0.01,1.06c0,0.06,0,0.13,0,0.19c-0.67,0.46-1.32,0.94-1.95,1.45
			c0.01,0.16,0.02,0.32,0.01,0.48c0.14,0.12,0.27,0.24,0.4,0.36c0.06,0.06,0.13,0.11,0.21,0.13c0.16,0.02,0.31,0.02,0.47,0.02
			c0.49-0.38,0.99-0.74,1.5-1.09c0.12-0.07,0.23-0.15,0.34-0.22c0.12-0.08,0.24-0.15,0.36-0.2c0.08-0.03,0.17-0.06,0.24-0.1
			c0.08-0.04,0.14-0.1,0.17-0.18c0.01-0.05,0.01-0.1-0.03-0.14c-0.07-0.05-0.16,0.02-0.22,0.07c-0.21,0.21-0.44,0.39-0.68,0.56
			c-0.24,0.16-0.5,0.3-0.74,0.47c-0.12,0.09-0.24,0.19-0.37,0.29c-0.18,0.14-0.38,0.28-0.58,0.4c-0.14-0.01-0.27,0-0.41,0.02
			c-0.02,0-0.04,0-0.06,0c-0.15-0.17-0.32-0.32-0.49-0.46c0.01-0.11,0.01-0.23-0.02-0.35c0.59-0.43,1.17-0.87,1.75-1.31
			C12.88,15.6,12.9,15.56,12.94,15.54z"/>
		<path class="st0" d="M11.19,15.55c-0.01,0.05,0,0.1,0.03,0.14c0.06,0.06,0.16,0.06,0.23,0.03c0.01-0.01,0.02-0.01,0.03-0.02
			c0.03-0.02,0.04-0.04,0.04-0.05c0.02-0.05,0.02-0.11,0-0.16c-0.01-0.02-0.01-0.03-0.02-0.04c-0.03-0.04-0.07-0.08-0.12-0.09
			c-0.06-0.01-0.14,0.02-0.16,0.1C11.21,15.49,11.19,15.52,11.19,15.55z"/>
		<path class="st0" d="M11.34,4.2c-0.04,0.05-0.06,0.12-0.04,0.18c0.02,0.06,0.09,0.09,0.16,0.1c0.02,0.01,0.04,0.01,0.06,0.01
			c0.02-0.01,0.04-0.02,0.06-0.03c0.06-0.04,0.09-0.13,0.07-0.2c-0.02-0.07-0.08-0.13-0.16-0.14c-0.01-0.01-0.03,0-0.04,0
			C11.4,4.13,11.37,4.16,11.34,4.2z"/>
		<path class="st0" d="M11.32,14.07c-0.01,0.01-0.01,0.02-0.02,0.03c0,0.01,0.01,0.03,0.01,0.04c0.02,0.07,0.05,0.15,0.12,0.17
			c0.02,0,0.04,0,0.06-0.01c0.06-0.01,0.1-0.03,0.13-0.06c0.03-0.04,0.03-0.09,0.02-0.14c-0.01-0.05-0.03-0.09-0.06-0.13
			c-0.03-0.03-0.06-0.04-0.1-0.04C11.41,13.94,11.36,14.01,11.32,14.07z"/>
		<path class="st0" d="M11.37,13.64c-0.01,0.06,0,0.11,0.03,0.16c0.02,0.03,0.04,0.05,0.08,0.06s0.08-0.01,0.11-0.04
			c0.04-0.03,0.07-0.05,0.08-0.08c0.02-0.03,0.03-0.08,0.02-0.11c-0.02-0.04-0.05-0.07-0.09-0.09c-0.03-0.02-0.06-0.04-0.09-0.05
			c-0.06-0.01-0.13,0.02-0.12,0.11C11.38,13.61,11.37,13.63,11.37,13.64z"/>
		<path class="st0" d="M11.5,5.33c-0.03,0.05-0.05,0.11-0.03,0.16c0.04,0.07,0.15,0.08,0.22,0.04c0.07-0.04,0.11-0.11,0.16-0.17
			C11.92,5.27,12,5.2,12.09,5.13c0.11-0.1,0.23-0.19,0.36-0.29c0.2-0.16,0.42-0.32,0.65-0.46c0.07-0.04,0.15-0.09,0.19-0.17
			c0.02-0.04,0.03-0.08,0.03-0.13c0.02-0.14,0.03-0.29,0.02-0.44c0-0.03-0.01-0.06-0.02-0.08c-0.01-0.03-0.04-0.05-0.07-0.07
			c-0.22-0.15-0.45-0.3-0.67-0.45c-0.03-0.06-0.08-0.12-0.14-0.16c-0.09-0.08-0.23-0.13-0.33-0.07c-0.02,0.01-0.03,0.02-0.04,0.04
			c-0.01,0.02,0,0.05,0.01,0.07c0.08,0.16,0.29,0.18,0.45,0.25c0.09,0.03,0.16,0.08,0.24,0.13c0.13,0.09,0.25,0.17,0.37,0.25
			c0.02,0.01,0.04,0.02,0.05,0.04c0,0.02,0,0.04,0,0.06c0,0.09,0,0.18,0,0.27c0,0.07,0,0.14-0.04,0.21
			c-0.03,0.05-0.07,0.08-0.12,0.12c-0.06,0.05-0.13,0.1-0.2,0.14c-0.03,0.01-0.07,0.03-0.09,0.04c-0.03,0.03-0.06,0.06-0.08,0.09
			c-0.12,0.15-0.28,0.26-0.44,0.37c-0.15,0.1-0.29,0.19-0.44,0.27c-0.05,0.03-0.09,0.05-0.14,0.07C11.59,5.26,11.54,5.29,11.5,5.33z
			"/>
		<path class="st0" d="M11.56,7.74c-0.04,0.03-0.07,0.07-0.07,0.12c0,0.09,0.11,0.13,0.19,0.1c0.09-0.03,0.14-0.1,0.2-0.17
			c0.08-0.1,0.19-0.19,0.29-0.28c0.29-0.24,0.6-0.47,0.92-0.69c0.17-0.11,0.34-0.22,0.48-0.37c0,0.31,0,0.61-0.02,0.92
			c-0.29,0.22-0.59,0.44-0.88,0.66c-0.06,0.06-0.13,0.1-0.2,0.15c-0.07,0.05-0.14,0.1-0.17,0.18c-0.01,0.01-0.02,0.02-0.02,0.03
			c-0.01,0.33-0.01,0.66,0,0.99c0.01,0,0.02,0.01,0.03,0.02c0.05,0.09,0.12,0.16,0.19,0.23c0.12,0.12,0.23,0.23,0.35,0.34
			c0.16-0.02,0.32-0.03,0.48-0.04c0.2,0,0.41,0,0.61,0c-0.03-0.33-0.05-0.68,0.04-1c0.01-0.07,0.04-0.14,0.03-0.21
			C14,8.65,13.94,8.59,13.87,8.59c-0.05,0.01-0.09,0.05-0.11,0.09c-0.02,0.04-0.02,0.09-0.02,0.14c0,0.07-0.01,0.14,0.03,0.2
			c0.01,0.03,0.04,0.05,0.05,0.08c0.01,0.03,0.02,0.06,0.02,0.09c0,0.18,0,0.36,0,0.54c0,0.02,0,0.04-0.01,0.05s-0.04,0.01-0.06,0
			c-0.29-0.05-0.59,0.1-0.87,0.01c-0.09-0.07-0.18-0.14-0.27-0.21c-0.03-0.02-0.06-0.04-0.09-0.07c-0.04-0.05-0.07-0.11-0.12-0.15
			c-0.02-0.31-0.02-0.62,0.02-0.93c0-0.02,0-0.04,0.01-0.06c0.01-0.02,0.03-0.04,0.05-0.06c0.13-0.1,0.27-0.19,0.41-0.27
			c0.12-0.07,0.24-0.15,0.36-0.23c0.09-0.06,0.18-0.12,0.27-0.18c0.06-0.05,0.12-0.09,0.16-0.15c0-0.07,0-0.13,0-0.13
			c0-0.31,0-0.61,0-0.91c0-0.02,0-0.05-0.02-0.06c0.2-0.19,0.44-0.36,0.69-0.48c0.09-0.04,0.18-0.07,0.23-0.15
			c0.05-0.07,0.05-0.2-0.04-0.24c-0.05-0.02-0.11,0-0.15,0.03c-0.04,0.03-0.08,0.07-0.11,0.11c-0.2,0.25-0.45,0.45-0.7,0.64
			c-0.21,0.16-0.42,0.32-0.63,0.48c-0.23,0.18-0.46,0.36-0.69,0.54c-0.08,0.06-0.17,0.13-0.26,0.18
			C11.86,7.58,11.69,7.63,11.56,7.74z"/>
		<path class="st0" d="M11.51,6.34c0,0.07,0.02,0.15,0.02,0.23c0.02,0.12,0,0.23,0.01,0.35c0,0.02,0,0.03,0.01,0.04
			c0.01,0.01,0.02,0.01,0.03,0.01c0.23,0.04,0.45,0.04,0.68,0.01c0.78-0.54,1.45-1.24,2.3-1.67c0.07-0.03,0.14-0.07,0.18-0.14
			c0.05-0.07,0.02-0.18-0.07-0.19c-0.07,0.04-0.13,0.09-0.19,0.14c-0.64,0.57-1.33,1.08-2.02,1.59c-0.1,0.07-0.2,0.15-0.33,0.17
			c-0.14,0.01-0.28,0-0.44-0.03c-0.01-0.11,0.02-0.22,0.04-0.34c0.03-0.11,0.04-0.23-0.02-0.33c-0.01-0.01-0.02-0.02-0.03-0.02
			c-0.01-0.01-0.03-0.01-0.04,0C11.56,6.18,11.52,6.26,11.51,6.34z"/>
		<path class="st0" d="M11.58,2c-0.04,0.06-0.01,0.15,0.04,0.19c0.06,0.05,0.13,0.07,0.2,0.1c0.11,0.05,0.22,0.12,0.32,0.18
			c0.43,0.29,0.85,0.57,1.28,0.86c0.02,0.01,0.04,0.02,0.05,0.05c0.01,0.01,0.01,0.03,0.01,0.05c0.01,0.29,0.02,0.59,0.03,0.88
			c0,0.12,0,0.24-0.02,0.36c-0.26,0.23-0.53,0.46-0.85,0.59C12.55,5.3,12.46,5.33,12.4,5.4c-0.06,0.06-0.08,0.18-0.01,0.24
			c0.07,0.06,0.18,0.02,0.24-0.04c0.07-0.07,0.1-0.16,0.16-0.23c0.04-0.04,0.08-0.07,0.13-0.1c0.2-0.15,0.4-0.3,0.59-0.44
			c0.03-0.02,0.05-0.04,0.07-0.06c0.05-0.06,0.04-0.15,0.04-0.23c-0.03-0.3-0.02-0.61,0.01-0.92c0.01-0.12,0.02-0.24-0.05-0.34
			c-0.04-0.05-0.1-0.09-0.15-0.12c-0.18-0.1-0.35-0.21-0.51-0.31c-0.27-0.17-0.52-0.34-0.78-0.51c-0.06-0.05-0.13-0.09-0.18-0.15
			S11.87,2.05,11.8,2C11.74,1.95,11.63,1.93,11.58,2z"/>
		<path class="st0" d="M11.69,3.98c-0.03,0.06,0.02,0.14,0.08,0.18c0.01,0.01,0.03,0.02,0.05,0.03c0.02,0,0.04-0.01,0.06-0.01
			c0.06-0.02,0.11-0.07,0.14-0.13c0.02-0.03,0.03-0.07,0.02-0.11c-0.02-0.04-0.06-0.07-0.1-0.1c-0.02-0.01-0.04-0.02-0.06-0.03
			h-0.01c-0.03,0.02-0.06,0.04-0.09,0.07C11.74,3.9,11.7,3.93,11.69,3.98z"/>
		<path class="st0" d="M11.79,8.28c-0.01,0.08,0.02,0.16,0.04,0.23c0.03,0.11,0.04,0.22,0.04,0.33c0.01,0.12,0.01,0.24,0.01,0.36
			c0.02,0.48,0.02,0.95,0.01,1.43c0.31,0.22,0.62,0.45,0.93,0.67c0.5,0.36,1.01,0.72,1.47,1.13c0.06,0.39,0.07,0.78,0.04,1.17
			c-0.22,0.16-0.43,0.32-0.65,0.48c-0.08,0.05-0.15,0.11-0.23,0.16c-0.06,0.04-0.12,0.08-0.19,0.11c0.03,0.68,0.03,1.35,0.01,2.03
			c-0.23,0.19-0.47,0.4-0.74,0.52c-0.08,0.04-0.16,0.07-0.24,0.11c-0.07,0.05-0.14,0.12-0.17,0.2c0,0.02,0,0.04,0.03,0.07
			c0.06,0.03,0.15,0.01,0.21-0.03c0.06-0.05,0.11-0.11,0.16-0.17c0.22-0.23,0.53-0.35,0.76-0.57c0.04-0.04,0.08-0.09,0.08-0.14
			c0-0.01,0-0.01,0-0.02c0-0.63,0-1.28,0-1.91c0.33-0.3,0.69-0.56,1.07-0.78c0-0.44,0-0.87-0.01-1.31
			c-0.01,0.01-0.04-0.01-0.06-0.03c-0.13-0.12-0.27-0.22-0.41-0.33c-0.65-0.47-1.29-0.95-1.94-1.43c-0.02-0.57-0.03-1.13-0.01-1.7
			c0-0.12,0.01-0.25,0.05-0.37c0.02-0.09,0.07-0.18,0.03-0.26c-0.03-0.06-0.1-0.09-0.16-0.08C11.86,8.17,11.81,8.22,11.79,8.28z"/>
		<path class="st0" d="M11.98,6.31c-0.05,0.03-0.07,0.1-0.06,0.16c0,0.06,0.04,0.12,0.09,0.15c0.02,0.01,0.04,0.02,0.05,0.02
			c0.03,0,0.06,0,0.08-0.02c0.07-0.03,0.11-0.11,0.1-0.18c-0.01-0.07-0.06-0.14-0.12-0.16C12.07,6.27,12.02,6.28,11.98,6.31z"/>
		<path class="st0" d="M12.02,1.81c-0.03,0.03-0.05,0.08-0.03,0.13C12,1.97,12.03,1.98,12.07,2c0.13,0.05,0.27,0,0.41-0.03
			c0.16-0.03,0.33-0.03,0.5-0.03c0.09,0,0.19,0,0.29,0c0.05,0,0.1,0,0.15,0.02c0.04,0.02,0.09,0.05,0.13,0.08
			c0.07,0.07,0.15,0.13,0.23,0.2c0.07,0.05,0.14,0.12,0.18,0.2C14,2.52,14,2.62,14,2.72c0,0.14-0.01,0.28-0.03,0.43
			c-0.23-0.18-0.45-0.38-0.65-0.59c-0.06-0.07-0.15-0.15-0.24-0.11C13,2.49,13,2.62,13.07,2.69c0.06,0.07,0.16,0.1,0.24,0.13
			c0.22,0.09,0.4,0.22,0.58,0.36c0.02,0.02,0.05,0.04,0.06,0.06c0.01,0.02,0.01,0.05,0.01,0.07c0,0.05,0.01,0.11,0.01,0.16
			c0.01,0.1,0.02,0.23,0.11,0.29c0.06,0.04,0.14,0.04,0.19,0.1c0.04,0.04,0.05,0.1,0.05,0.16c0.01,0.1,0.02,0.19,0.01,0.29
			c0.21,0.22,0.52,0.29,0.75,0.47c0.06,0.05,0.12,0.11,0.18,0.15c0.04,0.01,0.07,0.03,0.1,0.05c0.02,0.03,0.03,0.07,0.03,0.1
			c0.02,0.11,0.04,0.23,0.02,0.34c-0.05,0.24-0.27,0.4-0.48,0.53c-0.28,0.18-0.56,0.36-0.83,0.56c-0.11,0.08-0.21,0.16-0.26,0.28
			C13.8,6.87,13.8,6.96,13.8,7.05c-0.01,0.32-0.01,0.63,0.01,0.94c-0.01,0.1,0.02,0.19,0.08,0.26c0.05,0.09,0.14,0.16,0.23,0.21
			c0.04,0.03,0.08,0.05,0.11,0.08c0.09,0.1,0.1,0.24,0.11,0.37c0,0.19,0.01,0.38-0.05,0.56c-0.03,0.11-0.09,0.22-0.03,0.31
			c0.02,0.05,0.07,0.08,0.13,0.09c0.01,0.01,0.02,0.01,0.03,0.01c0.01-0.01,0.02-0.02,0.03-0.02c0.06-0.08,0.07-0.19,0.06-0.29
			c-0.01-0.09-0.04-0.19-0.06-0.29c-0.04-0.22-0.02-0.44-0.02-0.67c-0.01-0.03-0.01-0.06-0.02-0.09c-0.02-0.02-0.04-0.03-0.06-0.05
			c-0.09-0.07-0.19-0.14-0.29-0.21c-0.03-0.02-0.07-0.05-0.1-0.09c-0.03-0.05-0.05-0.12-0.03-0.18c-0.06-0.38-0.05-0.77,0-1.15
			c0.01-0.02,0.01-0.04,0.02-0.06c0.02-0.02,0.04-0.04,0.06-0.05c0.16-0.12,0.33-0.24,0.49-0.36c0.32-0.23,0.64-0.46,0.96-0.69
			c0.02-0.02,0.05-0.04,0.06-0.07c0.01-0.02,0.01-0.03,0.01-0.05c0-0.11,0-0.22,0.01-0.33c0-0.08,0-0.16-0.03-0.23
			c-0.05-0.11-0.17-0.18-0.28-0.23c-0.22-0.11-0.42-0.24-0.62-0.37c-0.06-0.05-0.13-0.1-0.14-0.18S14.46,4.08,14.45,4
			c-0.01-0.1-0.02-0.19-0.08-0.26c-0.08-0.06-0.21-0.07-0.25-0.16c-0.01-0.03-0.01-0.06-0.01-0.1c-0.01-0.33-0.01-0.66-0.02-0.99
			c0-0.03,0-0.06-0.01-0.09c-0.02-0.03-0.04-0.05-0.06-0.07C13.9,2.22,13.78,2.11,13.66,2c-0.03-0.03-0.07-0.06-0.11-0.08
			c-0.04-0.01-0.07-0.02-0.11-0.03c-0.23-0.03-0.46-0.07-0.7-0.05c-0.04,0.01-0.09,0.01-0.13,0.01c-0.16,0-0.3-0.09-0.45-0.08
			C12.11,1.77,12.06,1.78,12.02,1.81z"/>
		<path class="st0" d="M12.09,3.64c-0.01,0.02-0.01,0.03-0.01,0.05s0.01,0.04,0.02,0.05c0.02,0.03,0.05,0.07,0.08,0.09
			c0.03,0.02,0.07,0.04,0.11,0.03c0.04-0.01,0.07-0.05,0.1-0.09c0.02-0.04,0.04-0.08,0.04-0.12c-0.01-0.05-0.04-0.09-0.08-0.12
			c-0.01,0-0.02-0.01-0.03-0.01C12.23,3.51,12.14,3.56,12.09,3.64z"/>
		<path class="st0" d="M12.17,10.27c0.01,0.07,0.07,0.12,0.13,0.13c0.06,0.02,0.13,0,0.19-0.01c0.14-0.04,0.28-0.07,0.42-0.1
			c0.02-0.01,0.05-0.02,0.07-0.02c0.03,0,0.07,0,0.11,0c0.16,0.02,0.33,0.04,0.5,0.05c0.11,0.05,0.2,0.11,0.29,0.19
			c0.02,0.03,0.05,0.06,0.08,0.09c0.11,0.1,0.22,0.19,0.34,0.27c0.18,0,0.37,0.01,0.55,0.02c0.1-0.04,0.19-0.09,0.27-0.14
			c0.04-0.03,0.07-0.05,0.09-0.08c0.03-0.04,0.04-0.09,0.04-0.13c0.08-0.63-0.07-1.27,0.04-1.89c0.04-0.05,0.02-0.11-0.02-0.16
			c-0.03-0.04-0.07-0.06-0.12-0.09c-0.24-0.14-0.47-0.29-0.7-0.46c-0.03-0.02-0.05-0.04-0.07-0.06c-0.01-0.03-0.01-0.06-0.01-0.09
			c-0.02-0.33,0.05-0.67-0.03-1c0.2,0.01,0.4,0.01,0.59,0.01c0.05,0,0.09,0,0.14-0.01c0.06-0.02,0.11-0.05,0.16-0.09
			c0.18-0.13,0.35-0.25,0.53-0.38c0-0.13,0-0.25,0-0.38c0-0.36,0-0.73,0-1.09c0.01-0.1,0-0.2-0.04-0.29
			c-0.04-0.09-0.13-0.16-0.21-0.22c-0.09-0.07-0.17-0.13-0.27-0.19C15.16,4.1,15.08,4.06,15.01,4c-0.05-0.05-0.09-0.1-0.14-0.14
			c-0.05-0.05-0.11-0.08-0.18-0.08c-0.06,0-0.13,0.05-0.13,0.12c0,0.08,0.09,0.13,0.17,0.17c0.29,0.12,0.57,0.27,0.83,0.46
			c0.03,0.03,0.07,0.05,0.08,0.09c0.02,0.03,0.02,0.07,0.02,0.11c0.01,0.5,0.01,1,0,1.49c-0.14,0.11-0.29,0.22-0.43,0.32
			c-0.06,0.05-0.13,0.1-0.2,0.12c-0.06,0.02-0.11,0.02-0.16,0.02c-0.24,0-0.47,0.01-0.7,0.01c0.01,0.33,0.01,0.65,0.02,0.98
			c0,0.09,0,0.18,0.05,0.26c0.03,0.04,0.07,0.08,0.11,0.11c0.23,0.19,0.5,0.32,0.73,0.5c0.03,0.02,0.06,0.04,0.07,0.08
			c0.01,0.02,0.01,0.04,0.01,0.06c-0.01,0.56-0.01,1.12-0.02,1.69c0.05,0.08,0.01,0.18-0.06,0.25c-0.03,0.03-0.07,0.06-0.11,0.08
			c-0.03,0.02-0.05,0.03-0.08,0.04c-0.02,0.01-0.05,0.01-0.07,0.01c-0.14-0.01-0.27-0.01-0.41-0.01c-0.02,0-0.04,0-0.06-0.01
			c-0.02-0.01-0.04-0.02-0.05-0.03c-0.17-0.13-0.34-0.26-0.51-0.39c0.22-0.03,0.43-0.03,0.65,0c0.13-0.07,0.26-0.15,0.37-0.25
			c0.05-0.04,0.1-0.09,0.13-0.15c0.03-0.08,0.02-0.16,0.02-0.24c-0.01-0.26-0.01-0.53,0.02-0.79c0.01-0.07,0.02-0.13,0-0.19
			c-0.03-0.06-0.09-0.11-0.15-0.09c-0.05,0.02-0.08,0.07-0.08,0.12c-0.01,0.05,0.01,0.1,0.02,0.15c0.07,0.25,0.08,0.51,0.08,0.77
			c0,0.08,0,0.17-0.05,0.23c-0.03,0.05-0.07,0.08-0.11,0.11c-0.08,0.05-0.15,0.11-0.23,0.16c-0.02,0.02-0.05,0.03-0.06,0.01
			c-0.45,0.05-0.89,0.06-1.34,0.03c-0.2-0.01-0.39-0.02-0.59-0.05c-0.06,0-0.12-0.01-0.18,0.01C12.23,10.16,12.17,10.21,12.17,10.27
			z"/>
		<path class="st0" d="M12.33,7.65c-0.03,0.02-0.06,0.07-0.05,0.11c0,0.03,0.01,0.05,0.03,0.07c0.04,0.06,0.12,0.09,0.18,0.07
			c0.07-0.01,0.13-0.07,0.15-0.14c0-0.02,0-0.04-0.01-0.05c0-0.01-0.01-0.02-0.02-0.02c-0.03-0.02-0.06-0.04-0.09-0.06
			c-0.03-0.01-0.05-0.03-0.07-0.03c-0.01,0-0.02,0.01-0.03,0.01l-0.01,0.01C12.38,7.62,12.36,7.63,12.33,7.65z"/>
		<path class="st0" d="M12.47,2.21c-0.01,0.04,0.01,0.08,0.03,0.12c0.01,0.03,0.03,0.05,0.06,0.07c0.02,0.01,0.04,0.01,0.06,0.02
			c0.05,0,0.1-0.01,0.14-0.03c0.04-0.03,0.08-0.07,0.09-0.11c0.02-0.05,0-0.11-0.03-0.14c-0.02-0.03-0.06-0.04-0.09-0.06
			c-0.05-0.02-0.1-0.03-0.15-0.02v0.01c-0.03,0.03-0.06,0.06-0.08,0.1C12.49,2.18,12.48,2.2,12.47,2.21z"/>
		<path class="st0" d="M12.6,8.59c-0.01,0.01-0.01,0.02-0.01,0.03c0.01,0.01,0.01,0.03,0.02,0.04c0.05,0.06,0.13,0.1,0.22,0.08
			c0.08-0.01,0.14-0.1,0.11-0.18c-0.02-0.07-0.09-0.1-0.15-0.14c-0.01,0-0.02-0.01-0.06,0.01c-0.01-0.02-0.04,0.01-0.05,0.02
			C12.64,8.49,12.61,8.54,12.6,8.59z"/>
		<path class="st0" d="M12.62,9.07c0,0.07,0.03,0.14,0.09,0.16c0.03,0.01,0.07,0.01,0.11,0.01c0.03-0.01,0.05-0.01,0.07-0.02
			c0.02-0.01,0.03-0.04,0.04-0.06c0.01-0.02,0.03-0.04,0.03-0.07c0.01-0.05-0.02-0.1-0.05-0.14c-0.02-0.03-0.04-0.06-0.08-0.08
			c-0.03-0.01-0.06-0.02-0.09,0c-0.02,0-0.03,0.02-0.04,0.03C12.66,8.95,12.63,9.01,12.62,9.07z"/>
		<path class="st0" d="M12.69,7.4c-0.04,0.05-0.04,0.12-0.02,0.18c0,0.02,0.01,0.03,0.02,0.05c0.02,0.01,0.04,0.01,0.06,0.02
			c0.02,0.01,0.05,0.01,0.08,0.01c0.02,0,0.05,0,0.07-0.01c0.04-0.03,0.06-0.07,0.08-0.12C12.99,7.5,13.01,7.47,13,7.44
			c0-0.04-0.03-0.07-0.06-0.1c-0.01-0.01-0.03-0.03-0.04-0.04C12.81,7.28,12.73,7.33,12.69,7.4z"/>
		<path class="st0" d="M12.77,10.46c-0.03,0.05-0.05,0.11-0.02,0.17c0.01,0.03,0.04,0.06,0.07,0.08c0.02,0.01,0.04,0.03,0.06,0.03
			c0.03,0.01,0.07,0.01,0.1-0.01c0.05-0.02,0.09-0.06,0.11-0.11c0-0.02,0.01-0.04,0-0.06c0-0.03-0.02-0.05-0.04-0.07
			c-0.06-0.05-0.15-0.1-0.23-0.07C12.8,10.42,12.78,10.44,12.77,10.46z"/>
		<path class="st0" d="M12.95,11.07c0,0.05,0.05,0.1,0.1,0.12c0.05,0.03,0.11,0.04,0.16,0.05c0.11,0.04,0.19,0.12,0.27,0.19
			c0.19,0.17,0.38,0.31,0.59,0.44c0.07,0.02,0.14,0.02,0.21,0.02c0.04,0,0.07,0,0.1,0c0.25,0,0.5,0,0.74,0
			c0.23-0.16,0.45-0.31,0.68-0.47c0.13-0.1,0.27-0.19,0.41-0.26c0.08-0.04,0.17-0.08,0.22-0.15c0.05-0.07,0.05-0.19-0.03-0.23
			c-0.09-0.04-0.18,0.05-0.24,0.12c-0.3,0.35-0.67,0.63-1.08,0.84c-0.31,0.02-0.63,0.03-0.94,0.02c-0.28-0.19-0.57-0.39-0.79-0.64
			c-0.06-0.07-0.12-0.14-0.2-0.16C13.07,10.93,12.95,10.98,12.95,11.07z"/>
		<path class="st0" d="M13,9.51c-0.03,0.11,0.06,0.24,0.17,0.22c0.07-0.02,0.12-0.1,0.12-0.17c0.01-0.08-0.01-0.15-0.03-0.23
			c-0.06-0.23-0.04-0.46-0.02-0.7c-0.03-0.09,0.01-0.18,0.04-0.27c0.02-0.07,0.04-0.14,0.03-0.22C13.29,8.07,13.23,8,13.15,8.01
			c-0.07,0-0.13,0.07-0.14,0.15C13,8.23,13.02,8.31,13.04,8.38c0.07,0.26,0.08,0.53,0.05,0.81c-0.01,0.06-0.02,0.12-0.04,0.18
			C13.03,9.42,13.01,9.46,13,9.51z"/>
		<path class="st0" d="M13.15,7.01c-0.1,0.04-0.17,0.16-0.14,0.27c0.01,0.03,0.03,0.06,0.06,0.09c0.04,0.03,0.11,0.03,0.16,0
			c0.05-0.02,0.09-0.07,0.13-0.12c0.01-0.02,0.03-0.05,0.03-0.08c0-0.05-0.04-0.09-0.08-0.13c-0.01-0.01-0.03-0.03-0.05-0.03
			C13.2,7,13.16,7.01,13.15,7.01z"/>
		<path class="st0" d="M13.23,10.55c-0.01,0.05,0,0.1,0.04,0.16c0.04,0.05,0.11,0.07,0.17,0.05c0.02,0,0.03-0.01,0.05-0.02
			c0.04-0.02,0.08-0.06,0.1-0.1c0.01-0.05,0-0.1-0.03-0.14c0.01-0.03-0.02-0.04-0.04-0.05c-0.06-0.01-0.13-0.03-0.19-0.01
			C13.29,10.46,13.25,10.5,13.23,10.55z"/>
		<path class="st0" d="M13.61,14.58c-0.01,0.14-0.02,0.28-0.02,0.42c0.09,0.03,0.16,0.12,0.19,0.22c0.03,0.1,0.03,0.2,0.03,0.31
			c0,0.2-0.01,0.4-0.06,0.6c-0.01,0.04-0.02,0.09,0,0.13c0.03,0.08,0.15,0.06,0.2,0c0.05-0.07,0.04-0.16,0.02-0.24
			c-0.02-0.08-0.05-0.16-0.04-0.24c0-0.15,0-0.3,0.01-0.45c0-0.04,0-0.08-0.01-0.12c-0.04-0.09-0.14-0.12-0.2-0.2
			c-0.08-0.08-0.07-0.21-0.06-0.32c0.38-0.31,0.77-0.6,1.18-0.86c0-0.41,0-0.82,0.01-1.23c0.46-0.34,0.92-0.67,1.39-1.01
			c0.01-0.01,0.02-0.01,0.03-0.02c0.14-0.08,0.32-0.1,0.48-0.05c0.02,0.01,0.05,0.02,0.07,0.01c0.05-0.01,0.06-0.08,0.06-0.13
			c0.01-0.15,0.01-0.3,0.01-0.45c0-0.32-0.02-0.63-0.05-0.94c-0.01-0.04-0.01-0.09-0.03-0.13c-0.03-0.05-0.08-0.08-0.12-0.12
			c-0.1-0.06-0.19-0.13-0.28-0.19c-0.03-0.02-0.07-0.05-0.09-0.08c-0.01-0.04-0.02-0.08-0.02-0.12c0-0.28,0-0.55-0.01-0.83
			c0-0.37,0-0.74,0.07-1.11c0.01-0.06,0.02-0.13,0-0.19c-0.01-0.04-0.05-0.08-0.09-0.09c-0.11,0.03-0.15,0.14-0.15,0.24
			c0.01,0.08,0.03,0.16,0.05,0.25c0.02,0.12,0.02,0.24,0.02,0.37c-0.01,0.39-0.02,0.78-0.02,1.17c-0.01,0.13-0.01,0.26,0.06,0.37
			c0.03,0.04,0.07,0.08,0.1,0.11c0.07,0.06,0.15,0.12,0.23,0.17c0.04,0.03,0.08,0.05,0.12,0.09c0.1,0.13-0.01,0.33,0.06,0.48
			c-0.11-0.07-0.22-0.15-0.33-0.23c-0.13-0.1-0.26-0.2-0.39-0.31c-0.06-0.05-0.12-0.1-0.15-0.17c-0.03-0.06-0.03-0.14-0.03-0.21
			c0-0.28,0-0.55,0-0.83c0-0.11,0-0.23,0.02-0.35c0.03-0.09,0.07-0.18,0.05-0.28c-0.01-0.09-0.1-0.19-0.19-0.16
			c-0.07,0.03-0.1,0.11-0.09,0.19c0.01,0.07,0.05,0.14,0.07,0.2c0.04,0.12,0.04,0.25,0.04,0.37c0,0.33-0.01,0.67-0.03,1.01
			c0,0.04-0.01,0.09,0.01,0.13c0.02,0.03,0.05,0.06,0.08,0.09c0.26,0.23,0.54,0.43,0.84,0.62c0.03,0.02,0.06,0.04,0.07,0.08
			c0.01,0.02,0.01,0.04,0.01,0.06c0.01,0.24,0.02,0.48,0.05,0.72c-0.04,0.05-0.11,0.02-0.17,0.02c-0.11-0.02-0.23,0.04-0.34,0.01
			c-0.3,0.31-0.63,0.58-1,0.82c-0.17,0.11-0.35,0.21-0.49,0.35c-0.05,0.32-0.04,0.64-0.03,0.96c0,0.09,0,0.18,0,0.27
			c-0.08,0.08-0.18,0.14-0.28,0.2c-0.1,0.05-0.2,0.1-0.28,0.16c-0.09,0.07-0.16,0.15-0.24,0.23C13.85,14.44,13.73,14.51,13.61,14.58
			z"/>
		<path class="st0" d="M13.63,10.98c-0.05,0.04-0.03,0.13,0.01,0.18c0.05,0.04,0.12,0.06,0.18,0.09c0.09,0.03,0.18,0.08,0.25,0.15
			c0.05,0.04,0.09,0.09,0.14,0.13c0.08,0.07,0.16,0.11,0.25,0.15c0.14,0.01,0.27,0.01,0.41-0.01c0.31-0.22,0.66-0.48,0.96-0.72
			c0.03-0.19,0.04-0.39,0.03-0.59c-0.01-0.05-0.01-0.1-0.03-0.15c-0.02-0.06-0.07-0.11-0.12-0.16c-0.06-0.06-0.13-0.13-0.19-0.19
			c0.01-0.52,0.01-1.03-0.01-1.54c-0.07-0.05-0.15-0.1-0.22-0.15c-0.05-0.04-0.11-0.08-0.16-0.12c-0.12-0.07-0.23-0.15-0.35-0.24
			c-0.05-0.03-0.1-0.07-0.14-0.12c0-0.18,0.01-0.37,0.03-0.54c0.12,0,0.25,0,0.37-0.01c0.04,0,0.09,0,0.13-0.01
			c0.07-0.02,0.14-0.06,0.2-0.1c0.16-0.12,0.33-0.23,0.5-0.35c0.08-0.05,0.16-0.11,0.22-0.18c0.04-0.47,0.03-0.94,0.02-1.41
			c-0.01-0.27-0.01-0.54-0.02-0.81c0-0.02,0-0.04-0.01-0.05c0-0.02-0.02-0.03-0.03-0.05c-0.32-0.3-0.77-0.46-1.07-0.78
			c-0.05-0.06-0.11-0.13-0.19-0.16c-0.07-0.03-0.18,0-0.2,0.08c-0.01,0.05,0.01,0.1,0.05,0.13c0.04,0.04,0.08,0.06,0.13,0.08
			c0.38,0.16,0.73,0.38,1.05,0.65c0.04,0.03,0.09,0.07,0.12,0.12c0.05,0.08,0.05,0.2,0.04,0.3c-0.03,0.61-0.02,1.22,0.01,1.83
			c-0.03,0.05-0.08,0.08-0.12,0.11c-0.17,0.12-0.38,0.21-0.51,0.37c-0.04,0.04-0.13,0.13-0.19,0.11c-0.22,0.03-0.38-0.04-0.59,0.01
			c-0.05,0.03-0.05,0.06-0.05,0.08c0,0.23,0.01,0.46,0.01,0.69c0.04,0.03,0.09,0.05,0.12,0.09c0.03,0.02,0.05,0.05,0.08,0.08
			c0.03,0.03,0.07,0.06,0.11,0.08c0.15,0.1,0.3,0.2,0.44,0.3c0,0,0.07,0.05,0.13,0.09c0.01,0.48,0.01,0.97,0,1.45
			c0.06,0.1,0.13,0.21,0.23,0.28c0.02,0.01,0.04,0.02,0.05,0.04c0.02,0.02,0.02,0.05,0.02,0.08c0,0.21,0,0.43-0.01,0.64
			c-0.29,0.21-0.58,0.43-0.86,0.65c-0.09,0-0.18,0-0.27,0.01c-0.04,0-0.08,0-0.11-0.02c-0.14-0.1-0.27-0.22-0.38-0.35
			c-0.1-0.12-0.21-0.25-0.36-0.27C13.69,10.95,13.66,10.96,13.63,10.98z"/>
		<path class="st0" d="M14.15,15.57c-0.01,0.05-0.01,0.1,0.01,0.15c0.01,0.04,0.05,0.09,0.1,0.09c0.06,0.01,0.13-0.05,0.14-0.11
			c0.02-0.07,0-0.14-0.02-0.21c-0.04-0.22-0.06-0.44-0.04-0.66c0-0.08,0.01-0.17,0.07-0.23c0.04-0.04,0.09-0.06,0.14-0.09
			c0.11-0.07,0.18-0.19,0.3-0.24c0.07-0.03,0.14-0.03,0.22-0.03c0.26-0.01,0.52-0.01,0.78-0.01c-0.01-0.06-0.01-0.12-0.02-0.18
			c-0.01-0.17-0.02-0.34-0.01-0.51c0-0.04,0.01-0.08,0.03-0.12c0.02-0.03,0.05-0.05,0.09-0.08c0.26-0.16,0.51-0.35,0.75-0.54
			c0.02-0.02,0.04-0.03,0.05-0.05c0.01-0.03,0-0.06,0-0.08c-0.03-0.24-0.02-0.48,0.02-0.71c0.02-0.07,0.04-0.16,0.02-0.23
			c-0.03-0.08-0.12-0.14-0.19-0.11c-0.05,0.03-0.07,0.08-0.07,0.14c0,0.05,0.02,0.1,0.03,0.15c0.06,0.2,0.06,0.41,0.06,0.62
			c0,0.05,0,0.11-0.02,0.16c-0.03,0.06-0.09,0.1-0.14,0.15c-0.23,0.17-0.45,0.35-0.67,0.52c-0.03,0.02-0.05,0.04-0.06,0.06
			c-0.01,0.03-0.01,0.06-0.01,0.09c0,0.2,0,0.4,0,0.59c-0.24-0.01-0.48-0.01-0.72,0c-0.04,0.01-0.08,0.01-0.1,0.04
			c-0.2,0.14-0.4,0.28-0.59,0.41c-0.02,0.02-0.04,0.03-0.05,0.05c-0.02,0.02-0.02,0.06-0.03,0.09c-0.01,0.19,0,0.38,0.03,0.57
			C14.17,15.34,14.16,15.46,14.15,15.57z"/>
		<path class="st0" d="M14.54,11.16c-0.02,0.03-0.04,0.07-0.03,0.1c0.01,0.03,0.03,0.05,0.06,0.07c0.02,0.03,0.05,0.05,0.08,0.06
			c0.03,0.01,0.07,0.02,0.1,0c0.03-0.02,0.04-0.04,0.05-0.06c0.02-0.03,0.04-0.06,0.05-0.09c0.01-0.06-0.01-0.13-0.05-0.17
			c-0.02-0.02-0.04-0.03-0.06-0.04C14.66,11.04,14.59,11.09,14.54,11.16z"/>
		<path class="st0" d="M14.76,15.37c-0.02,0.05-0.03,0.12-0.02,0.18c0.01,0.08,0.06,0.17,0.14,0.17c0.07-0.01,0.12-0.07,0.14-0.13
			c0.02-0.08,0.01-0.16-0.01-0.23c-0.02-0.06-0.04-0.13-0.05-0.19c-0.04-0.16-0.02-0.33,0-0.5c0.12,0.03,0.24-0.03,0.36-0.03
			c0.07,0,0.14,0.02,0.21,0.04c0.07,0.02,0.15,0.03,0.21,0.01c0.07-0.02,0.13-0.09,0.12-0.16c-0.01-0.07-0.07-0.12-0.13-0.13
			c-0.07-0.01-0.13,0.01-0.2,0.03c-0.05,0.02-0.11,0.04-0.16,0.08c-0.15-0.02-0.3-0.03-0.45-0.05c-0.01,0-0.03,0-0.04,0.01
			c-0.02,0.01-0.02,0.03-0.02,0.04c-0.03,0.18-0.04,0.36-0.03,0.54c0,0.05,0.01,0.1-0.01,0.16C14.81,15.26,14.78,15.31,14.76,15.37z
			"/>
		<path class="st0" d="M14.87,7.34c-0.04,0.04-0.06,0.09-0.06,0.14c0.01,0.05,0.04,0.1,0.08,0.13c0.05,0.03,0.11,0.03,0.16,0.03
			c0.02-0.01,0.03-0.01,0.05-0.01c0.03-0.01,0.04-0.02,0.04-0.04c0.02-0.04,0.04-0.08,0.04-0.12s-0.01-0.09-0.05-0.11
			c-0.01-0.02-0.03-0.02-0.05-0.03c-0.05-0.02-0.1-0.04-0.15-0.02C14.91,7.32,14.88,7.33,14.87,7.34z"/>
		<path class="st0" d="M14.98,5.13c-0.06,0.03-0.09,0.1-0.08,0.15c0.01,0.04,0.04,0.07,0.07,0.1C15,5.41,15.04,5.45,15.1,5.46
			c0.06,0,0.11-0.04,0.15-0.09c0.04-0.03,0.07-0.06,0.07-0.1c0-0.03-0.02-0.05-0.03-0.07c-0.03-0.04-0.08-0.08-0.13-0.1
			C15.1,5.1,15.03,5.1,14.98,5.13z"/>
		<path class="st0" d="M15.13,6.06c-0.1,0.02-0.16,0.12-0.15,0.22c0,0.02,0.01,0.04,0.02,0.06c0.02,0.02,0.04,0.03,0.06,0.04
			c0.06,0.02,0.12,0.04,0.19,0.03c0.08-0.03,0.12-0.12,0.11-0.2c-0.02-0.08-0.09-0.14-0.17-0.16c-0.01,0-0.02-0.01-0.04-0.01
			C15.14,6.05,15.13,6.06,15.13,6.06z"/>
		<path class="st0" d="M15.2,13.64c-0.01,0.06,0,0.13,0.05,0.17c0.04,0.05,0.12,0.06,0.16,0.02c0.04-0.02,0.05-0.06,0.06-0.11
			c0.02-0.09,0.01-0.2-0.04-0.29c-0.01-0.03-0.03-0.07-0.04-0.1c0-0.02,0-0.04,0-0.06c0.02-0.13,0.02-0.27,0.01-0.4
			c0.18-0.17,0.39-0.3,0.62-0.39c0.06-0.02,0.13-0.04,0.18-0.08c0.05-0.04,0.09-0.11,0.07-0.17c-0.02-0.06-0.07-0.1-0.13-0.1
			c-0.05-0.01-0.11,0.02-0.16,0.05c-0.06,0.05-0.1,0.13-0.16,0.19c-0.04,0.05-0.08,0.09-0.13,0.13c-0.11,0.1-0.23,0.18-0.35,0.25
			c-0.03,0.02-0.05,0.03-0.08,0.05c0,0.17,0,0.35,0.01,0.53c0,0.03,0,0.07-0.01,0.1C15.25,13.5,15.21,13.57,15.2,13.64z"/>
		<path class="st0" d="M15.27,7.42c-0.01,0.06,0.01,0.12,0.05,0.17c0.02,0.03,0.05,0.05,0.09,0.06c0.03,0.01,0.07,0,0.12-0.03
			c0.04-0.02,0.06-0.06,0.08-0.1c0.02-0.03,0.04-0.08,0.03-0.12c-0.02-0.03-0.04-0.05-0.07-0.07c-0.05,0-0.17-0.01-0.17-0.01
			C15.34,7.31,15.29,7.36,15.27,7.42z"/>
		<path class="st0" d="M16.34,5.39c-0.01,0.1,0.01,0.2,0.03,0.29c0.04,0.31,0.05,0.62,0.01,0.93c-0.01,0.06-0.02,0.13,0.01,0.19
			c0.02,0.03,0.04,0.05,0.06,0.07c0.1,0.09,0.21,0.18,0.33,0.26c0.08,0.06,0.17,0.11,0.22,0.2c0.05,0.08,0.05,0.19,0.05,0.29
			c0,0.13-0.01,0.27-0.1,0.35c-0.06,0.05-0.15,0.08-0.19,0.15c-0.01,0.03-0.02,0.06-0.02,0.09c-0.03,0.26-0.02,0.53,0.01,0.78
			c0,0.01,0,0.02,0,0.03c0.01,0.06-0.01,0.13-0.03,0.18c-0.03,0.07-0.06,0.14-0.06,0.21c0,0.08,0.05,0.16,0.12,0.17
			c0.04,0,0.09-0.01,0.11-0.04c0.04-0.05,0.04-0.13,0.03-0.19c-0.05-0.34-0.07-0.68-0.07-1.02c0-0.05,0-0.09,0.02-0.13
			c0.05-0.11,0.2-0.12,0.27-0.22c0.03-0.05,0.03-0.12,0.03-0.18c0-0.09,0-0.19,0-0.28c0-0.1,0-0.2-0.05-0.28
			C17.09,7.19,17.04,7.15,17,7.12C16.85,7,16.69,6.88,16.53,6.78c-0.06-0.42-0.05-0.86,0.03-1.28c0.01-0.05,0.02-0.11,0.01-0.17
			c-0.02-0.05-0.07-0.1-0.13-0.09C16.38,5.25,16.35,5.32,16.34,5.39z"/>
		<path class="st0" d="M16.65,7.39c-0.07,0.05-0.15,0.11-0.14,0.19c0,0.07,0.06,0.12,0.12,0.15c0.04,0.03,0.08,0.05,0.13,0.04
			c0.02-0.01,0.05-0.02,0.07-0.04c0.06-0.05,0.09-0.14,0.06-0.21c-0.02-0.08-0.1-0.13-0.18-0.12C16.69,7.4,16.66,7.41,16.65,7.39z"
			/>
	</g>
	<g>
		<path class="st1" d="M10.67,9.93c0,2.31-0.01,4.62-0.01,6.93c0,0.41,0.04,0.89,0.41,1.07c0.11,0.06,0.24,0.07,0.36,0.09
			c0.59,0.07,1.24,0.12,1.74-0.21c0.16-0.1,0.29-0.24,0.45-0.34c0.31-0.21,0.69-0.27,1.04-0.38c0.35-0.12,0.71-0.34,0.82-0.69
			c0.08-0.27,0-0.57,0.05-0.85c0.11-0.55,0.72-0.89,0.82-1.44c0.04-0.21,0-0.43,0.09-0.62c0.07-0.17,0.23-0.28,0.36-0.41
			c0.27-0.27,0.42-0.64,0.41-1.02c-0.01-0.18-0.04-0.36-0.02-0.53c0.02-0.16,0.09-0.3,0.14-0.45c0.12-0.32,0.14-0.67,0.07-1
			c-0.03-0.14-0.07-0.27-0.09-0.41c-0.01-0.13,0-0.26,0.01-0.4c0.04-0.47,0.09-0.94,0.21-1.39c0.06-0.22,0.14-0.46,0.07-0.67
			c-0.03-0.37-0.42-0.65-0.46-1.02c-0.03-0.25,0.1-0.51,0.01-0.74c-0.09-0.22-0.33-0.31-0.48-0.49c-0.17-0.22-0.18-0.52-0.25-0.78
			c-0.13-0.58-0.55-1.09-1.1-1.3c-0.25-0.1-0.55-0.15-0.72-0.36c-0.09-0.11-0.13-0.23-0.19-0.35c-0.19-0.34-0.55-0.57-0.93-0.68
			c-0.37-0.12-0.77-0.13-1.16-0.15c-0.11,0-0.23,0-0.34,0.02c-0.16,0.04-0.3,0.14-0.39,0.27c-0.17,0.12-0.3,0.31-0.35,0.51
			c-0.05,0.2-0.05,0.45-0.22,0.55c-0.08,0.04-0.17,0.04-0.23,0.09c-0.05,0.04-0.07,0.09-0.09,0.15c-0.07,0.18-0.06,0.37-0.06,0.55
			C10.66,5.65,10.65,7.76,10.67,9.93z"/>
	</g>
</g>
</svg>
