<?xml version="1.0" encoding="utf-8"?>
<!-- Generator: Adobe Illustrator 24.0.0, SVG Export Plug-In . SVG Version: 6.00 Build 0)  -->
<svg version="1.1" id="Lager_1" xmlns="http://www.w3.org/2000/svg" xmlns:xlink="http://www.w3.org/1999/xlink" x="0px" y="0px"
	 width="2px" height="2px" viewBox="0 0 1920 1080" style="enable-background:new 0 0 1920 1080;" xml:space="preserve">
<style type="text/css">
	.st0{fill:none;}
	.st1{fill:#213F63;}
</style>
<g>
	<path class="st0" d="M1663.56,359.07"/>
</g>
<g>
	<path class="st0" d="M1376.64,187.56"/>
</g>
<g>
	<path class="st1" d="M913.63,294.78c1.23-0.96,2.22-2.29,2.78-3.74c1.19-3.1,0.82-6.58,0.11-9.82
		c-2.44-11.09-8.58-20.95-14.62-30.57c-15.61-24.87-31.22-49.74-46.83-74.61c-5.51-8.77-13.05-18.62-23.04-18.93
		c-3.39,10.01,1.32,21.19,5.97,30.89c17.76,37.09,36.02,74.9,64.74,104.33c1.7,1.75,3.62,3.55,6.03,3.9
		C910.52,296.47,912.23,295.87,913.63,294.78z"/>
</g>
<g>
	<path class="st1" d="M974.31,404.53c2.46-0.77,2.47-4.73,1.68-7.43c-2.89-9.78-6.44-19.37-10.64-28.67
		c-2.31-5.12-4.82-10.18-8.17-14.68c-2.62-3.52-5.71-6.66-8.79-9.78c-7.83-7.95-15.66-15.89-23.49-23.84
		c-4.59,12.04,4.9,23.04,9.87,34.24c1.75,3.94,2.96,8.09,4.53,12.11c5.98,15.39,17.21,28.68,31.38,37.16c0.95,0.57,2,1.14,3.11,1.01
		C973.97,404.62,974.15,404.58,974.31,404.53z"/>
</g>
<g>
	<path class="st1" d="M985.93,531.54c0.74,0.23,1.51,0.29,2.28,0.1c1.27-0.32,2.28-1.29,3-2.38c2.3-3.47,2.09-7.97,1.66-12.11
		c-1.94-18.94-6.55-37.61-13.66-55.28c-1.1-2.74-2.28-5.73-1.76-8.58c-3.95,4.65-6.53,10.46-7.33,16.52
		c-0.71,5.4-0.03,10.88,0.65,16.29c0.76,6.01,1.51,12.03,2.27,18.04c1.17,9.26,2.77,19.39,9.79,25.55
		C983.74,530.47,984.8,531.2,985.93,531.54z"/>
</g>
<g>
	<path class="st1" d="M794.82,763.63c1.8-0.25,3.47-1.35,4.99-2.43c15.56-11.08,29.39-24.38,43.16-37.62
		c31.17-29.99,62.34-59.99,93.51-89.98c7.1-6.83,14.29-13.78,19.28-22.27c5.15-8.77,7.34-20.59,2.36-29.04
		C894.84,629,832,679.74,791.63,747.25c-1.71,2.85-3.42,5.89-3.47,9.22s2.18,6.93,5.49,7.19
		C794.04,763.69,794.44,763.68,794.82,763.63z"/>
</g>
<g>
	<path class="st1" d="M705.85,931.23c0.74,0.36,1.52,0.54,2.33,0.37c1.72-0.36,2.71-2.12,3.48-3.69c4.64-9.48,9.39-19.58,8.38-30.09
		c-0.54-5.6-2.7-10.9-4.87-16.09c-8.46-20.26-17.43-40.3-26.88-60.11c-4.51,5.39-5.6,13.23-6.21,20.43
		c-1.31,15.48-1.92,31.17,0.9,46.44c2.82,15.27,9.32,30.23,20.53,40.98C704.2,930.13,704.99,930.81,705.85,931.23z"/>
</g>
</svg>
