<?xml version="1.0" encoding="utf-8"?>
<!-- Generator: Adobe Illustrator 24.0.0, SVG Export Plug-In . SVG Version: 6.00 Build 0)  -->
<svg version="1.1" id="Lager_1" xmlns="http://www.w3.org/2000/svg" xmlns:xlink="http://www.w3.org/1999/xlink" x="300px" y="300px"
	 width="2000px" height="2000px" viewBox="0 0 20 20" style="enable-background:new 0 0 20 20;" xml:space="preserve">
<g>
	<g>
		<path d="M8.09,1.91c0,0.43,0,0.87,0,1.3c-0.01,0.21,0.04,0.4,0.13,0.58c0.06,0.19,0.16,0.35,0.31,0.48
			c0.14,0.15,0.3,0.25,0.48,0.31c0.18,0.09,0.37,0.14,0.58,0.13c0.13-0.02,0.27-0.04,0.4-0.05c0.25-0.07,0.47-0.2,0.66-0.39
			c0.08-0.1,0.16-0.2,0.23-0.3c0.14-0.23,0.2-0.49,0.2-0.76c0-0.43,0-0.87,0-1.3c0.01-0.21-0.04-0.4-0.13-0.58
			c-0.06-0.19-0.16-0.35-0.31-0.48c-0.14-0.15-0.3-0.25-0.48-0.31C9.98,0.45,9.79,0.41,9.59,0.41c-0.13,0.02-0.27,0.04-0.4,0.05
			c-0.25,0.07-0.47,0.2-0.66,0.39c-0.08,0.1-0.16,0.2-0.23,0.3C8.15,1.39,8.09,1.64,8.09,1.91L8.09,1.91z"/>
	</g>
</g>
<g>
	<g>
		<path d="M11.95,7.31c1.93,0,1.93-3,0-3C10.02,4.31,10.02,7.31,11.95,7.31L11.95,7.31z"/>
	</g>
</g>
<g>
	<g>
		<path d="M13.62,10.25c1.93,0,1.93-3,0-3C11.69,7.25,11.69,10.25,13.62,10.25L13.62,10.25z"/>
	</g>
</g>
<g>
	<g>
		<path d="M11.98,12.15c0,0.37,0,0.73,0,1.1c-0.01,0.21,0.04,0.4,0.13,0.58c0.06,0.19,0.16,0.35,0.31,0.48
			c0.14,0.15,0.3,0.25,0.48,0.31c0.18,0.09,0.37,0.14,0.58,0.13c0.13-0.02,0.27-0.04,0.4-0.05c0.25-0.07,0.47-0.2,0.66-0.39
			c0.08-0.1,0.16-0.2,0.23-0.3c0.14-0.23,0.2-0.49,0.2-0.76c0-0.37,0-0.73,0-1.1c0.01-0.21-0.04-0.4-0.13-0.58
			c-0.06-0.19-0.16-0.35-0.31-0.48c-0.14-0.15-0.3-0.25-0.48-0.31c-0.18-0.09-0.37-0.14-0.58-0.13c-0.13,0.02-0.27,0.04-0.4,0.05
			c-0.25,0.07-0.47,0.2-0.66,0.39c-0.08,0.1-0.16,0.2-0.23,0.3C12.05,11.63,11.98,11.88,11.98,12.15L11.98,12.15z"/>
	</g>
</g>
<g>
	<g>
		<path d="M10.59,17.2c1.93,0,1.93-3,0-3C8.66,14.2,8.66,17.2,10.59,17.2L10.59,17.2z"/>
	</g>
</g>
<g>
	<g>
		<path d="M7.31,14.37c-0.27,0-0.54,0-0.81,0c-0.21-0.01-0.4,0.04-0.58,0.13c-0.19,0.06-0.35,0.16-0.48,0.31
			c-0.15,0.14-0.25,0.3-0.31,0.48C5.03,15.47,4.99,15.67,5,15.87c0.02,0.13,0.04,0.27,0.05,0.4c0.07,0.25,0.2,0.47,0.39,0.66
			c0.1,0.08,0.2,0.16,0.3,0.23c0.23,0.14,0.49,0.2,0.76,0.2c0.27,0,0.54,0,0.81,0c0.21,0.01,0.4-0.04,0.58-0.13
			c0.19-0.06,0.35-0.16,0.48-0.31c0.15-0.14,0.25-0.3,0.31-0.48c0.09-0.18,0.14-0.37,0.13-0.58c-0.02-0.13-0.04-0.27-0.05-0.4
			c-0.07-0.25-0.2-0.47-0.39-0.66c-0.1-0.08-0.2-0.16-0.3-0.23C7.83,14.44,7.58,14.37,7.31,14.37L7.31,14.37z"/>
	</g>
</g>
<g>
	<g>
		<path d="M3.61,19.54c1.93,0,1.93-3,0-3C1.68,16.54,1.68,19.54,3.61,19.54L3.61,19.54z"/>
	</g>
</g>
</svg>
