<?xml version="1.0" encoding="utf-8"?>
<!-- Generator: Adobe Illustrator 24.0.0, SVG Export Plug-In . SVG Version: 6.00 Build 0)  -->
<svg version="1.1" id="Lager_1" xmlns="http://www.w3.org/2000/svg" xmlns:xlink="http://www.w3.org/1999/xlink" x="0px" y="0px"
	 width="1920px" height="1080px" viewBox="0 0 1920 1080" style="enable-background:new 0 0 1920 1080;" xml:space="preserve">
<style type="text/css">
	.st0{fill:#F1F1F1;}
	.st1{fill:#FF8074;}
</style>
<rect class="st0" width="1920" height="1080"/>
<g>
	<g>
		<path class="st1" d="M980.96,259.61c15.59,10.54,31.97-13.7,16.38-24.24C981.75,224.84,965.37,249.07,980.96,259.61L980.96,259.61
			z"/>
	</g>
</g>
<g>
	<g>
		<path class="st1" d="M959.42,296.17c16.53,11.18,33.9-14.52,17.37-25.7C960.26,259.3,942.89,285,959.42,296.17L959.42,296.17z"/>
	</g>
</g>
<g>
	<g>
		<path class="st1" d="M923.9,322.62c20.48,6.78,31.04-25.06,10.55-31.84C913.97,284,903.42,315.84,923.9,322.62L923.9,322.62z"/>
	</g>
</g>
<g>
	<g>
		<path class="st1" d="M879.02,330.75c21.93,7.26,33.23-26.82,11.29-34.09C868.38,289.4,857.09,323.49,879.02,330.75L879.02,330.75z
			"/>
	</g>
</g>
<g>
	<g>
		<path class="st1" d="M395.42,469.59c-26.19-2.66-30.31,38.06-4.13,40.71C417.48,512.95,421.61,472.24,395.42,469.59L395.42,469.59
			z"/>
	</g>
</g>
<g>
	<g>
		<path class="st1" d="M397.73,424.3c-24.12-2.45-27.91,35.05-3.8,37.48C418.06,464.22,421.85,426.75,397.73,424.3L397.73,424.3z"/>
	</g>
</g>
<g>
	<g>
		<path class="st1" d="M423.36,392.83c-22.79-2.31-26.37,33.11-3.59,35.41C442.55,430.55,446.14,395.14,423.36,392.83L423.36,392.83
			z"/>
	</g>
</g>
<g>
	<g>
		<path class="st1" d="M462.24,381.65c-21.9-2.22-25.35,31.83-3.45,34.04C480.69,417.91,484.14,383.86,462.24,381.65L462.24,381.65z
			"/>
	</g>
</g>
<g>
	<g>
		<path class="st1" d="M1053.14,89.02c10.14-7.71-1.84-23.48-11.99-15.76S1043,96.74,1053.14,89.02L1053.14,89.02z"/>
	</g>
</g>
<g>
	<g>
		<path class="st1" d="M1054.59,65.03c9.07-6.89-1.65-20.98-10.71-14.09C1034.81,57.82,1045.53,71.92,1054.59,65.03L1054.59,65.03z"
			/>
	</g>
</g>
<g>
	<g>
		<path class="st1" d="M1042.03,45.56c7.96-6.05-1.46-18.43-9.41-12.37S1034.07,51.61,1042.03,45.56L1042.03,45.56z"/>
	</g>
</g>
<g>
	<g>
		<path class="st1" d="M1028.06,32.74c6.94-5.27-1.26-16.06-8.2-10.78C1012.92,27.23,1021.13,38.01,1028.06,32.74L1028.06,32.74z"/>
	</g>
</g>
<g>
	<g>
		<path class="st1" d="M428.83,802.94c-25.53,6.41-35.5-33.28-9.97-39.68C444.39,756.85,454.36,796.54,428.83,802.94L428.83,802.94z
			"/>
	</g>
</g>
<g>
	<g>
		<path class="st1" d="M438.62,850.21c-25.04,6.29-34.81-32.64-9.77-38.92C453.9,805.01,463.66,843.92,438.62,850.21L438.62,850.21z
			"/>
	</g>
</g>
<g>
	<g>
		<path class="st1" d="M471.83,885.65c-26.5,6.66-36.83-34.54-10.34-41.18C487.99,837.81,498.33,878.99,471.83,885.65L471.83,885.65
			z"/>
	</g>
</g>
<g>
	<g>
		<path class="st1" d="M521.4,903.17c-28.23,7.09-39.25-36.8-11.02-43.88C538.6,852.22,549.62,896.09,521.4,903.17L521.4,903.17z"/>
	</g>
</g>
</svg>
