<?xml version="1.0" encoding="utf-8"?>
<!-- Generator: Adobe Illustrator 24.0.0, SVG Export Plug-In . SVG Version: 6.00 Build 0)  -->
<svg version="1.1" id="Lager_1" xmlns="http://www.w3.org/2000/svg" xmlns:xlink="http://www.w3.org/1999/xlink" x="0px" y="0px"
	 width="1000px" height="1000px" viewBox="0 0 20 20" style="enable-background:new 0 0 20 20;" xml:space="preserve">
<g>
	<g>
		<path d="M6.15,1.91c0,0.43,0,0.87,0,1.3c-0.01,0.21,0.04,0.4,0.13,0.58c0.06,0.19,0.16,0.35,0.31,0.48
			c0.14,0.15,0.3,0.25,0.48,0.31c0.18,0.09,0.37,0.14,0.58,0.13c0.13-0.02,0.27-0.04,0.4-0.05c0.25-0.07,0.47-0.2,0.66-0.39
			c0.08-0.1,0.16-0.2,0.23-0.3c0.14-0.23,0.2-0.49,0.2-0.76c0-0.43,0-0.87,0-1.3c0.01-0.21-0.04-0.4-0.13-0.58
			C8.96,1.15,8.86,0.99,8.71,0.85C8.58,0.71,8.42,0.6,8.23,0.54C8.05,0.45,7.86,0.41,7.65,0.41c-0.13,0.02-0.27,0.04-0.4,0.05
			C7,0.54,6.78,0.67,6.59,0.85c-0.08,0.1-0.16,0.2-0.23,0.3C6.22,1.39,6.15,1.64,6.15,1.91L6.15,1.91z"/>
	</g>
</g>
<g>
	<g>
		<path d="M5.29,7.31c1.93,0,1.93-3,0-3C3.36,4.31,3.35,7.31,5.29,7.31L5.29,7.31z"/>
	</g>
</g>
<g>
	<g>
		<path d="M3.61,10.25c1.93,0,1.93-3,0-3C1.68,7.25,1.68,10.25,3.61,10.25L3.61,10.25z"/>
	</g>
</g>
<g>
	<g>
		<path d="M2.26,12.15c0,0.37,0,0.73,0,1.1c-0.01,0.21,0.04,0.4,0.13,0.58c0.06,0.19,0.16,0.35,0.31,0.48
			c0.14,0.15,0.3,0.25,0.48,0.31c0.18,0.09,0.37,0.14,0.58,0.13c0.13-0.02,0.27-0.04,0.4-0.05c0.25-0.07,0.47-0.2,0.66-0.39
			c0.08-0.1,0.16-0.2,0.23-0.3c0.14-0.23,0.2-0.49,0.2-0.76c0-0.37,0-0.73,0-1.1c0.01-0.21-0.04-0.4-0.13-0.58
			c-0.06-0.19-0.16-0.35-0.31-0.48c-0.14-0.15-0.3-0.25-0.48-0.31c-0.18-0.09-0.37-0.14-0.58-0.13c-0.13,0.02-0.27,0.04-0.4,0.05
			c-0.25,0.07-0.47,0.2-0.66,0.39c-0.08,0.1-0.16,0.2-0.23,0.3C2.33,11.63,2.26,11.88,2.26,12.15L2.26,12.15z"/>
	</g>
</g>
<g>
	<g>
		<path d="M6.64,17.2c1.93,0,1.93-3,0-3C4.71,14.2,4.71,17.2,6.64,17.2L6.64,17.2z"/>
	</g>
</g>
<g>
	<g>
		<path d="M9.93,17.37c0.27,0,0.54,0,0.81,0c0.21,0.01,0.4-0.04,0.58-0.13c0.19-0.06,0.35-0.16,0.48-0.31
			c0.15-0.14,0.25-0.3,0.31-0.48c0.09-0.18,0.14-0.37,0.13-0.58c-0.02-0.13-0.04-0.27-0.05-0.4c-0.07-0.25-0.2-0.47-0.39-0.66
			c-0.1-0.08-0.2-0.16-0.3-0.23c-0.23-0.14-0.49-0.2-0.76-0.2c-0.27,0-0.54,0-0.81,0c-0.21-0.01-0.4,0.04-0.58,0.13
			c-0.19,0.06-0.35,0.16-0.48,0.31c-0.15,0.14-0.25,0.3-0.31,0.48c-0.09,0.18-0.14,0.37-0.13,0.58c0.02,0.13,0.04,0.27,0.05,0.4
			c0.07,0.25,0.2,0.47,0.39,0.66c0.1,0.08,0.2,0.16,0.3,0.23C9.41,17.3,9.66,17.37,9.93,17.37L9.93,17.37z"/>
	</g>
</g>
<g>
	<g>
		<path d="M13.62,19.54c1.93,0,1.93-3,0-3C11.69,16.54,11.69,19.54,13.62,19.54L13.62,19.54z"/>
	</g>
</g>
</svg>
