<?xml version="1.0" encoding="utf-8"?>
<!-- Generator: Adobe Illustrator 24.0.0, SVG Export Plug-In . SVG Version: 6.00 Build 0)  -->
<svg version="1.1" id="Lager_1" xmlns="http://www.w3.org/2000/svg" xmlns:xlink="http://www.w3.org/1999/xlink" x="0px" y="0px"
	 width="2000px" height="2000px" viewBox="0 0 2000 2000" style="enable-background:new 0 0 2000 2000;" xml:space="preserve">
<style type="text/css">
	.st0{fill:#FF8074;}
</style>
<g>
	<g>
		<path class="st0" d="M876.8,830.8c25.9,13.6,47-26.6,21.1-40.2C872.1,777,851,817.2,876.8,830.8L876.8,830.8z"/>
	</g>
</g>
<g>
	<g>
		<path class="st0" d="M851.6,873.6c24.1,12.7,43.8-24.8,19.7-37.4C847.2,823.5,827.5,860.9,851.6,873.6L851.6,873.6z"/>
	</g>
</g>
<g>
	<g>
		<path class="st0" d="M819.9,906.8c23,4.9,30.6-30.8,7.6-35.7C804.6,866.2,797,901.9,819.9,906.8L819.9,906.8z"/>
	</g>
</g>
<g>
	<g>
		<path class="st0" d="M777.4,924.6c22.6,4.8,30.1-30.3,7.5-35.1C762.3,884.6,754.8,919.7,777.4,924.6L777.4,924.6z"/>
	</g>
</g>
<g>
	<g>
		<path class="st0" d="M263.2,1271.7c-10.8,14.8,12.2,31.6,23,16.8C297,1273.8,274,1256.9,263.2,1271.7L263.2,1271.7z"/>
	</g>
</g>
<g>
	<g>
		<path class="st0" d="M231,1248.3c-11.1,15.2,12.5,32.5,23.6,17.3C265.8,1250.4,242.2,1233.1,231,1248.3L231,1248.3z"/>
	</g>
</g>
<g>
	<g>
		<path class="st0" d="M218.5,1211.1c-11.6,15.8,13,33.9,24.6,18C254.7,1213.3,230.1,1195.3,218.5,1211.1L218.5,1211.1z"/>
	</g>
</g>
<g>
	<g>
		<path class="st0" d="M228.3,1171c-12.3,16.8,13.8,35.9,26.1,19.1C266.6,1173.3,240.6,1154.2,228.3,1171L228.3,1171z"/>
	</g>
</g>
<g>
	<g>
		<path class="st0" d="M987.2,1682.1c19.7-0.1,19.5-30.8-0.2-30.7C967.3,1651.5,967.5,1682.2,987.2,1682.1L987.2,1682.1z"/>
	</g>
</g>
<g>
	<g>
		<path class="st0" d="M987.4,1724.5c19.9-0.1,19.7-31.1-0.2-31C967.2,1693.6,967.5,1724.6,987.4,1724.5L987.4,1724.5z"/>
	</g>
</g>
<g>
	<g>
		<path class="st0" d="M961.9,1758.5c19.8-0.1,19.6-31-0.2-30.8S942.1,1758.6,961.9,1758.5L961.9,1758.5z"/>
	</g>
</g>
<g>
	<g>
		<path class="st0" d="M919,1776c19.1-0.1,18.9-29.8-0.2-29.7C899.7,1746.4,899.9,1776.1,919,1776L919,1776z"/>
	</g>
</g>
<g>
	<g>
		<path class="st0" d="M843.1,583c-35.1,18.6-64-36-28.9-54.6C849.4,509.8,878.2,564.4,843.1,583L843.1,583z"/>
	</g>
</g>
<g>
	<g>
		<path class="st0" d="M787.6,524.3c-40.4,21.3-73.5-41.4-33.2-62.8C794.8,440.2,828,503,787.6,524.3L787.6,524.3z"/>
	</g>
</g>
<g>
	<g>
		<path class="st0" d="M743,451.4c-53.3,28.2-97.1-54.6-43.8-82.8C752.5,340.5,796.3,423.3,743,451.4L743,451.4z"/>
	</g>
</g>
<g>
	<g>
		<path class="st0" d="M316.4,1921.4c-7.5,10.3,8.5,22,16,11.7S323.9,1911.2,316.4,1921.4L316.4,1921.4z"/>
	</g>
</g>
<g>
	<g>
		<path class="st0" d="M321.8,1944.8c-6.7,9.2,7.5,19.6,14.3,10.5S328.5,1935.7,321.8,1944.8L321.8,1944.8z"/>
	</g>
</g>
<g>
	<g>
		<path class="st0" d="M339.4,1959.9c-5.9,8.1,6.6,17.3,12.5,9.2S345.3,1951.9,339.4,1959.9L339.4,1959.9z"/>
	</g>
</g>
<g>
	<g>
		<path class="st0" d="M356.4,1968.3c-5.1,7,5.8,15,10.9,8C372.5,1969.2,361.6,1961.2,356.4,1968.3L356.4,1968.3z"/>
	</g>
</g>
<g>
	<g>
		<path class="st0" d="M279.9,274.4c-137.3,30.5-184.7-183-47.4-213.4S417.2,243.9,279.9,274.4L279.9,274.4z"/>
	</g>
</g>
<polygon points="270.6,234 270.9,109.8 323.6,109.8 323.5,117.5 278.2,117.5 278.2,159.4 323.5,159.4 323.5,166.7 278.2,166.7 
	278.2,234 "/>
<polygon points="195.4,109.8 196.1,234.5 203.7,234.5 203,165.6 256.3,165.6 256.1,234 264,234 264,109.8 256.2,109.8 256.3,160.1 
	203,160.1 203,109.8 "/>
<polygon class="st0" points="275.4,231.9 275.7,107.7 326.6,107.7 326.4,115.4 282.7,115.4 282.7,157.3 326.4,157.3 326.4,164.5 
	282.7,164.5 282.7,231.9 "/>
<polygon class="st0" points="199.7,107.7 200.4,232.4 207.8,232.4 207.2,163.4 259.4,163.4 259.2,231.9 266.9,231.9 266.9,107.7 
	259.3,107.7 259.4,158 207.2,158 207.2,107.7 "/>
</svg>
