<?xml version="1.0" encoding="utf-8"?>
<!-- Generator: Adobe Illustrator 23.1.0, SVG Export Plug-In . SVG Version: 6.00 Build 0)  -->
<svg version="1.1" xmlns="http://www.w3.org/2000/svg" xmlns:xlink="http://www.w3.org/1999/xlink" x="0px" y="0px" width="500px"
	 height="500px" viewBox="0 0 500 500" style="enable-background:new 0 0 500 500;" xml:space="preserve">
<style type="text/css">
	.st0{fill:#213F63;}
	.st1{fill:#C9E5ED;}
	.st2{fill:none;stroke:#C9E5ED;stroke-miterlimit:10;}
	.st3{fill:#9CB9DE;}
	.st4{fill:#FFFFFF;}
	.st5{fill:#328195;}
	.st6{fill:none;stroke:#328195;stroke-width:3;stroke-miterlimit:10;}
	.st7{font-family:'Minimal';}
	.st8{font-size:19.0331px;}
</style>
<g id="Lager_1">
	<polygon class="st0" points="183.68,194.57 184.12,283 189.42,283 188.98,234.3 227.39,234.3 227.39,283.31 231.36,283.31 
		231.36,194.57 227.39,194.57 227.39,230.33 188.98,230.33 188.98,194.57 	"/>
	<circle class="st1" cx="377.35" cy="313.16" r="3.31"/>
	<circle class="st1" cx="308.35" cy="350.16" r="3.31"/>
	<line class="st2" x1="145.05" y1="352.53" x2="260.28" y2="274.39"/>
	<line class="st2" x1="208.88" y1="161.02" x2="268.93" y2="196.55"/>
	<circle class="st0" cx="284.35" cy="238.28" r="45.03"/>
	<circle class="st3" cx="284.03" cy="238.83" r="43.16"/>
	<polygon class="st0" points="345.71,283 345.71,202.2 370.88,240.61 374.85,240.61 402.67,200.88 402.67,283 406.64,283 
		406.64,194.25 401.34,194.25 373.53,237.96 345.71,194.25 340.42,194.25 340.42,283 	"/>
	<polygon class="st0" points="417.24,283 417.24,191.61 453,191.61 453,195.58 421.21,195.58 421.21,228.69 453,228.69 453,232.67 
		421.21,232.67 421.21,279.02 453,279.02 453,283 	"/>
	<polygon class="st0" points="284.79,378.36 284.79,286.97 321.87,286.97 321.87,293.59 290.08,293.59 290.08,324.06 321.87,324.06 
		321.87,329.35 290.08,329.35 290.08,378.36 	"/>
	<line class="st2" x1="308.5" y1="350.5" x2="377.5" y2="313.5"/>
	<polygon class="st0" points="308.85,378.36 343.29,289.62 347.26,289.62 380.37,378.36 375.07,378.36 347.26,301.54 343.29,301.54 
		314.15,378.36 	"/>
	<rect x="388.1" y="289.62" class="st0" width="5.3" height="88.74"/>
	<path class="st0" d="M407.97,286.97v91.39h5.3v-38.41h10.6l22.52,38.41H453l-22.52-39.74c0,0,19.94-9.03,17.22-26.49
		C445.21,296.15,432.98,285.03,407.97,286.97z"/>
	<path class="st4" d="M413.26,290.94v45.03c0,0,30.84,1.32,29.73-24.26C442.11,291.48,413.26,290.94,413.26,290.94z"/>
	<circle class="st1" cx="198.69" cy="317.43" r="7.95"/>
	<line class="st2" x1="93.21" y1="267.79" x2="203.33" y2="316.77"/>
	<line class="st2" x1="86.99" y1="218.94" x2="96.55" y2="194.39"/>
	<line class="st2" x1="134.36" y1="245.55" x2="130.7" y2="285.02"/>
	<circle class="st1" cx="130.65" cy="284.78" r="5.96"/>
	<circle class="st1" cx="97.06" cy="194.1" r="3.31"/>
	<circle class="st1" cx="134.96" cy="243.69" r="3.31"/>
	<line class="st2" x1="298.2" y1="179.11" x2="276.14" y2="177.48"/>
	<line class="st2" x1="271.61" y1="177.2" x2="253.24" y2="182.73"/>
	<circle class="st1" cx="300.9" cy="178.97" r="3.31"/>
	<circle class="st1" cx="274.42" cy="176.78" r="4.76"/>
	<circle class="st1" cx="252.94" cy="182.63" r="3.31"/>
</g>
<g id="Lager_3">
	<circle class="st3" cx="76.3" cy="243.28" r="29.8"/>
	<circle class="st3" cx="119.88" cy="368.43" r="29.8"/>
	<circle class="st3" cx="179.53" cy="155" r="29.8"/>
</g>
<g id="Lager_2">
	<rect x="165.63" y="146.39" class="st5" width="4.1" height="4.1"/>
	<rect x="165.63" y="152.95" class="st5" width="4.1" height="4.1"/>
	<rect x="165.63" y="159.51" class="st5" width="4.1" height="4.1"/>
	<rect x="173" y="146.39" class="st5" width="24.5" height="4.1"/>
	<rect x="173" y="152.95" class="st5" width="24.5" height="4.1"/>
	<rect x="173" y="159.51" class="st5" width="24.5" height="4.1"/>
	<circle class="st6" cx="76.63" cy="243.61" r="16.89"/>
	<polyline class="st6" points="74.63,230.69 74.63,240.75 82.9,249.01 	"/>
	<text transform="matrix(1 0 0 1 109.7583 363.9678)" class="st6 st7 st8">0</text>
	<text transform="matrix(1 0 0 1 125.7397 381.4561)" class="st6 st7 st8">0</text>
	<polygon class="st5" points="114.62,383.86 131.24,352.99 127.29,352.99 111.46,383.86 	"/>
</g>
</svg>
