<?xml version="1.0" encoding="utf-8"?>
<!-- Generator: Adobe Illustrator 23.1.0, SVG Export Plug-In . SVG Version: 6.00 Build 0)  -->
<svg version="1.1" id="Lager_1" xmlns="http://www.w3.org/2000/svg" xmlns:xlink="http://www.w3.org/1999/xlink" x="0px" y="0px"
	 width="500px" height="500px" viewBox="0 0 20 20" style="enable-background:new 0 0 20 20;" xml:space="preserve">
<style type="text/css">
	.st0{fill:#213F63;}
	.st1{fill:#9CB9DE;}
</style>
<path class="st0" d="M1.22,9.97c0-4.95,4.02-8.97,8.97-8.97s8.97,4.02,8.97,8.97s-4.02,8.97-8.97,8.97S1.22,14.93,1.22,9.97"/>
<path class="st1" d="M1.6,9.97c0-4.75,3.85-8.6,8.6-8.6s8.6,3.85,8.6,8.6s-3.85,8.6-8.6,8.6S1.6,14.72,1.6,9.97"/>
<polygon class="st0" points="11.72,14.77 11.74,5.77 15.43,5.77 15.42,6.33 12.25,6.33 12.25,9.36 15.42,9.36 15.42,9.89 
	12.25,9.89 12.25,14.77 "/>
<polygon class="st0" points="6.36,5.77 6.4,14.81 6.93,14.81 6.88,9.81 10.58,9.81 10.56,14.77 11.11,14.77 11.11,5.77 10.57,5.77 
	10.58,9.41 6.88,9.41 6.88,5.77 "/>
<polygon class="st1" points="11.94,14.61 11.96,5.62 15.64,5.62 15.63,6.17 12.46,6.17 12.46,9.21 15.63,9.21 15.63,9.74 
	12.46,9.74 12.46,14.61 "/>
<polygon class="st1" points="6.57,5.62 6.61,14.65 7.14,14.65 7.1,9.65 10.79,9.65 10.77,14.61 11.32,14.61 11.32,5.62 10.78,5.62 
	10.79,9.26 7.1,9.26 7.1,5.62 "/>
</svg>
