<?xml version="1.0" encoding="utf-8"?>
<!-- Generator: Adobe Illustrator 23.1.0, SVG Export Plug-In . SVG Version: 6.00 Build 0)  -->
<svg version="1.1" id="Lager_1" xmlns="http://www.w3.org/2000/svg" xmlns:xlink="http://www.w3.org/1999/xlink" x="0px" y="0px"
	 width="20px" height="20px" viewBox="0 0 20 20" style="enable-background:new 0 0 20 20;" xml:space="preserve">
<style type="text/css">
	.st0{fill:#213F63;}
	.st1{fill:#9CB9DE;}
	.st2{fill:#FFFFFF;}
</style>
<polygon class="st0" points="0.99,3.74 1.02,9.78 1.38,9.78 1.35,6.46 3.98,6.46 3.98,9.8 4.25,9.8 4.25,3.74 3.98,3.74 3.98,6.18 
	1.35,6.18 1.35,3.74 "/>
<circle class="st0" cx="7.87" cy="6.73" r="3.08"/>
<circle class="st1" cx="7.85" cy="6.77" r="2.95"/>
<polygon class="st0" points="12.06,9.78 12.06,4.26 13.78,6.89 14.05,6.89 15.95,4.17 15.95,9.78 16.22,9.78 16.22,3.72 15.86,3.72 
	13.93,6.71 12.06,3.72 11.7,3.72 11.7,9.78 "/>
<polygon class="st0" points="17,9.78 16.95,3.74 19.39,3.74 19.39,4.02 17.22,4.02 17.22,6.28 19.39,6.28 19.39,6.55 17.22,6.55 
	17.21,9.51 19.39,9.51 19.39,9.78 "/>
<polygon class="st0" points="7.9,16.3 7.91,10.13 10.44,10.13 10.43,10.51 8.26,10.51 8.26,12.59 10.43,12.59 10.43,12.95 
	8.26,12.95 8.26,16.3 "/>
<polygon class="st0" points="9.54,16.3 11.94,10.13 12.15,10.13 14.43,16.3 14.07,16.3 12.17,11.05 11.9,11.05 9.9,16.3 "/>
<polygon class="st0" points="14.95,10.13 15.36,10.13 15.32,16.3 14.96,16.3 "/>
<path class="st0" d="M16.32,10.13l0,6.17h0.36v-2.62h0.72l1.54,2.62h0.45l-1.54-2.72c0,0,1.36-0.62,1.18-1.81
	C18.86,10.68,18.03,9.99,16.32,10.13z"/>
<path class="st2" d="M16.68,10.33v3.08c0,0,2.11,0.09,2.03-1.66C18.65,10.36,16.68,10.33,16.68,10.33z"/>
</svg>
