<?xml version="1.0" encoding="utf-8"?>
<!-- Generator: Adobe Illustrator 23.1.0, SVG Export Plug-In . SVG Version: 6.00 Build 0)  -->
<svg version="1.1" id="Lager_1" xmlns="http://www.w3.org/2000/svg" xmlns:xlink="http://www.w3.org/1999/xlink" x="0px" y="0px"
	 width="500px" height="500px" viewBox="0 0 20 20" style="enable-background:new 0 0 20 20;" xml:space="preserve">
<style type="text/css">
	.st0{fill:none;stroke:#C9E5ED;stroke-width:0.099;stroke-miterlimit:10;}
	.st1{fill:#213F63;}
	.st2{fill:#9CB9DE;}
	.st3{fill:#FFFFFF;}
	.st4{fill:#C9E5ED;}
	.st5{fill:none;stroke:#328195;stroke-width:0.099;stroke-miterlimit:10;}
	.st6{fill:#328195;}
</style>
<line class="st0" x1="6.38" y1="10.65" x2="2.83" y2="14.39"/>
<line class="st0" x1="14.07" y1="14.08" x2="9.54" y2="16.77"/>
<line class="st0" x1="6.38" y1="2.62" x2="7.33" y2="5.4"/>
<line class="st0" x1="7.2" y1="10.86" x2="5.75" y2="16.77"/>
<polygon class="st1" points="0.99,5.07 1.02,11.11 1.38,11.11 1.35,7.78 3.91,7.78 3.91,11.13 4.25,11.13 4.25,5.07 3.91,5.07 
	3.91,7.51 1.35,7.51 1.35,5.07 "/>
<circle class="st1" cx="7.87" cy="8.05" r="3.08"/>
<circle class="st2" cx="7.87" cy="8.05" r="2.95"/>
<polygon class="st1" points="12.06,11.11 12.06,5.59 13.78,8.21 14.08,8.21 15.89,5.59 15.88,11.11 16.22,11.11 16.22,5.05 
	15.86,5.05 13.93,8.03 12.06,5.05 11.7,5.05 11.7,11.11 "/>
<polygon class="st1" points="17,11.11 16.95,5.07 19.39,5.07 19.39,5.34 17.22,5.34 17.22,7.6 19.39,7.6 19.39,7.88 17.22,7.88 
	17.21,10.84 19.39,10.84 19.39,11.11 "/>
<polygon class="st1" points="7.9,17.63 7.91,11.45 10.44,11.45 10.43,11.83 8.26,11.83 8.26,13.91 10.43,13.91 10.43,14.28 
	8.26,14.28 8.26,17.63 "/>
<polygon class="st1" points="9.54,17.63 11.94,11.45 12.15,11.45 14.43,17.63 14.07,17.63 12.17,12.38 11.9,12.38 9.9,17.63 "/>
<polygon class="st1" points="14.95,11.45 15.36,11.45 15.32,17.63 14.96,17.63 "/>
<path class="st1" d="M16.32,11.45l0,6.17h0.36V15h0.72l1.54,2.62h0.45l-1.54-2.72c0,0,1.36-0.62,1.18-1.81
	C18.86,12.01,18.03,11.32,16.32,11.45z"/>
<path class="st3" d="M16.68,11.65v3.08c0,0,2.11,0.09,2.03-1.66C18.65,11.69,16.68,11.65,16.68,11.65z"/>
<circle class="st4" cx="2.33" cy="15.01" r="0.96"/>
<circle class="st4" cx="6.38" cy="2.59" r="0.96"/>
<circle class="st4" cx="5.42" cy="17.36" r="0.96"/>
<circle class="st4" cx="14.07" cy="14.08" r="0.19"/>
<circle class="st4" cx="9.54" cy="16.77" r="0.19"/>
<circle class="st5" cx="2.33" cy="15.01" r="0.67"/>
<polyline class="st5" points="2.33,14.74 2.33,15.03 2.56,15.27 "/>
<polygon class="st6" points="5.21,17.87 5.8,16.77 5.66,16.77 5.09,17.87 "/>
<rect x="5.74" y="2.25" class="st6" width="0.16" height="0.16"/>
<rect x="5.74" y="2.51" class="st6" width="0.16" height="0.16"/>
<rect x="5.74" y="2.77" class="st6" width="0.16" height="0.16"/>
<rect x="6.04" y="2.25" class="st6" width="0.98" height="0.16"/>
<rect x="6.04" y="2.51" class="st6" width="0.98" height="0.16"/>
<rect x="6.04" y="2.77" class="st6" width="0.98" height="0.16"/>
</svg>
