<?xml version="1.0" encoding="utf-8"?>
<!-- Generator: Adobe Illustrator 23.1.0, SVG Export Plug-In . SVG Version: 6.00 Build 0)  -->
<svg version="1.1" id="Lager_1" xmlns="http://www.w3.org/2000/svg" xmlns:xlink="http://www.w3.org/1999/xlink" x="0px" y="0px"
	 width="200px" height="200px" viewBox="0 0 6 6" style="enable-background:new 0 0 6 6;" xml:space="preserve">
<style type="text/css">
	.st0{fill:#213F63;}
	.st1{fill:#328195;}
	.st2{fill:#9CB9DE;}
	.st3{fill:#79ACD2;}
	.st4{fill:#5E7DC9;}
	.st5{fill:#C9E5ED;}
	.st6{fill:none;}
</style>
<polygon class="st0" points="0,0 0,1 1,1 "/>
<polygon class="st1" points="1,0 1,2 3,2 "/>
<polygon class="st0" points="2,6 2,3 5,3 "/>
<polygon class="st2" points="2,2 2,1 1,1 "/>
<polygon class="st3" points="2,0 2,1 1,1 "/>
<polygon class="st4" points="3,1 3,2 4,2 "/>
<polygon class="st0" points="5,5 5,6 6,6 "/>
<polygon class="st0" points="5,4 5,5 6,5 "/>
<polygon class="st3" points="5,3 5,4 6,4 "/>
<polygon class="st0" points="4,4 4,5 5,5 "/>
<polygon class="st5" points="5,3 5,2 6,2 "/>
<line class="st6" x1="0" y1="4" x2="0" y2="2"/>
<line class="st6" x1="1" y1="4" x2="1" y2="2"/>
<line class="st6" x1="1" y1="2" x2="1" y2="0"/>
<polygon class="st2" points="0,2 0,1 1,1 "/>
<polygon class="st4" points="3,0 3,1 4,1 "/>
<polygon class="st0" points="3,1 3,0 2,0 "/>
<polygon class="st2" points="4,2 4,3 5,3 "/>
<polygon class="st2" points="5,1 5,2 4,2 "/>
<rect x="4" class="st2" width="2" height="2"/>
<circle class="st0" cx="5" cy="1" r="1"/>
<polygon class="st1" points="0,2 0,4 2,4 "/>
<polygon class="st1" points="0,4 0,6 2,6 "/>
<polygon class="st2" points="2,6 2,4 0,4 "/>
<polygon class="st2" points="2,4 2,2 0,2 "/>
<polygon class="st0" points="3,5 3,6 4,6 "/>
<polygon class="st0" points="3,3 3,2 2,2 "/>
<polygon class="st3" points="2,3 2,4 3,4 "/>
<polygon class="st3" points="3,3 3,4 4,4 "/>
<polygon class="st3" points="3,4 3,5 4,5 "/>
</svg>
