<?xml version="1.0" encoding="utf-8"?>
<!-- Generator: Adobe Illustrator 23.1.0, SVG Export Plug-In . SVG Version: 6.00 Build 0)  -->
<svg version="1.1" id="Lager_1" xmlns="http://www.w3.org/2000/svg" xmlns:xlink="http://www.w3.org/1999/xlink" x="0px" y="0px"
	 width="6000px" height="6000px" viewBox="0 0 6 6" style="enable-background:new 0 0 6 6;" xml:space="preserve">
<style type="text/css">
	.st0{fill:#B79E9B;}
	.st1{fill:#FF8074;}
	.st2{fill:#F1828D;}
	.st3{fill:#FCD0BA;}
	.st4{fill:#FEFAD4;}
	.st5{fill:#765D69;}
	.st6{fill:none;}
	.st7{fill:#9CB9DE;}
	.st8{fill:none;stroke:#FFFFFF;stroke-width:0.025;stroke-miterlimit:10;}
</style>
<rect class="st0" width="6" height="6"/>
<polygon class="st1" points="1,1 1,0 0,0 "/>
<polygon class="st2" points="1,4 1,6 3,6 "/>
<polygon class="st3" points="2,2 2,1 1,1 "/>
<polygon class="st2" points="2,1 2,0 1,0 "/>
<polygon class="st4" points="3,1 3,2 4,2 "/>
<polygon class="st4" points="5,5 5,6 6,6 "/>
<polygon class="st4" points="5,4 5,5 6,5 "/>
<polygon class="st5" points="5,3 5,4 6,4 "/>
<polygon class="st4" points="4,4 4,5 5,5 "/>
<polygon class="st1" points="6,3 6,2 5,2 "/>
<line class="st6" x1="0" y1="4" x2="0" y2="2"/>
<line class="st6" x1="1" y1="4" x2="1" y2="2"/>
<line class="st6" x1="1" y1="2" x2="1" y2="0"/>
<polygon class="st3" points="1,2 1,1 0,1 "/>
<polygon class="st2" points="3,0 3,1 4,1 "/>
<polygon class="st4" points="3,1 3,0 2,0 "/>
<polygon class="st5" points="4,2 4,3 5,3 "/>
<polygon class="st7" points="5,1 5,2 4,2 "/>
<rect x="4" class="st3" width="2" height="2"/>
<circle class="st4" cx="5" cy="1" r="1"/>
<polygon class="st2" points="0,2 0,4 2,4 "/>
<polygon class="st5" points="0,4 0,6 2,6 "/>
<polygon class="st3" points="2,6 2,4 0,4 "/>
<polygon class="st3" points="2,4 2,2 0,2 "/>
<polygon class="st4" points="3,5 3,6 4,6 "/>
<polygon class="st5" points="3,3 3,2 2,2 "/>
<polygon class="st5" points="2,3 2,4 3,4 "/>
<polygon class="st2" points="3,3 3,4 4,4 "/>
<polygon class="st5" points="3,4 3,5 4,5 "/>
<polygon class="st4" points="2,4 2,5 3,5 "/>
<polygon class="st1" points="5,4 5,3 4,3 "/>
<polygon class="st1" points="3,2 3,3 4,3 "/>
<polygon class="st1" points="5,3 5,2 4,2 "/>
<polygon class="st2" points="3,2 3,1 2,1 "/>
<polygon class="st2" points="5,6 5,5 4,5 "/>
<path class="st8" d="M5,0"/>
<path class="st8" d="M5,2"/>
<path class="st8" d="M4.51,0.13"/>
<path class="st8" d="M5.49,1.87"/>
<path class="st8" d="M4,0.98"/>
<path class="st8" d="M6,1.02"/>
<path class="st8" d="M5.86,1.51"/>
<path class="st8" d="M4.14,0.49"/>
<path class="st8" d="M4.49,1.86"/>
<path class="st8" d="M5.51,0.14"/>
<path class="st8" d="M4.58,1.91"/>
<path class="st8" d="M5.42,0.09"/>
<path class="st8" d="M5.76,1.66"/>
<path class="st8" d="M4.24,0.34"/>
</svg>
